<?xml version="1.0" encoding="utf-8"?>
<!-- Generator: Adobe Illustrator 27.3.1, SVG Export Plug-In . SVG Version: 6.00 Build 0)  -->
<svg version="1.1" xmlns="http://www.w3.org/2000/svg" xmlns:xlink="http://www.w3.org/1999/xlink" x="0px" y="0px"
	 viewBox="0 0 932.77 566.93" style="enable-background:new 0 0 932.77 566.93;" xml:space="preserve">
<style type="text/css">
	.st0{display:none;}
	.st1{display:inline;}
	.st2{fill-rule:evenodd;clip-rule:evenodd;fill:#007C8B;}
	.st3{fill:#89A358;}
	.st4{fill:#007C8B;}
	.st5{fill-rule:evenodd;clip-rule:evenodd;fill:#89A358;}
	.st6{display:inline;fill:#89A358;}
	.st7{display:inline;fill:#007C8B;}
</style>
<g id="Layer_1" class="st0">
	<g class="st1">
		<g>
			<circle class="st2" cx="620.96" cy="235.73" r="12.45"/>
			<circle class="st2" cx="620.96" cy="201.88" r="12.45"/>
			<g>
				<path class="st3" d="M648.18,234.4c-4.1,13.21-17.33,22.88-23.02,35.92c-4.24,9.71,4.51,16.88,7.32,22.04
					c12-15.96,29.02-38.89,31.57-58.58c2.89-22.3-11.21-40.03-29.41-54.25C648.46,196.23,654.45,214.23,648.18,234.4z"/>
				<path class="st3" d="M593.73,234.4c4.1,13.21,17.33,22.88,23.02,35.92c4.24,9.71-4.51,16.88-7.32,22.04
					c-12-15.96-29.02-38.89-31.57-58.58c-2.89-22.3,11.21-40.03,29.41-54.25C593.46,196.23,587.47,214.23,593.73,234.4z"/>
			</g>
			<g>
				<path class="st4" d="M559.7,290.55c-14.7,2.31-27.05,14.87-41.82,18.89c-10.99,2.99-17.26-7.43-22.31-11.23
					c18.85-10.28,45.92-24.81,67.28-24.45c24.19,0.41,40.85,18.18,53.14,39.77C600.36,296.21,582.13,287.03,559.7,290.55z"/>
				<circle class="st5" cx="559.35" cy="253.78" r="12.45"/>
				<path class="st4" d="M682.22,290.55c14.7,2.31,27.05,14.87,41.82,18.89c10.99,2.99,17.26-7.43,22.31-11.23
					c-18.85-10.28-45.92-24.81-67.28-24.45c-24.19,0.41-40.85,18.18-53.14,39.77C641.55,296.21,659.78,287.03,682.22,290.55z"/>
				<circle class="st5" cx="682.57" cy="253.78" r="12.45"/>
			</g>
		</g>
		<g>
			<path class="st4" d="M474.47,345.97h-1.26c-1.03,0-1.54-0.28-1.54-0.85c0-0.51,0.36-0.76,1.07-0.76c0.37,0,0.74,0.04,1.11,0.11
				l0.27-1.66c-0.52-0.07-0.96-0.11-1.31-0.11c-1.09,0-1.92,0.26-2.49,0.77c-0.49,0.45-0.74,1.02-0.74,1.71
				c0,0.43,0.14,0.72,0.42,0.87c-0.28-0.06-0.69-0.09-1.25-0.09v1.66h5.71V345.97z"/>
			<path class="st4" d="M488.08,345.27c-1.8,0-3.6,0.29-5.39,0.87l0.27,2.1c1.63-0.54,3.21-0.8,4.76-0.8c2.19,0,3.8,0.55,4.81,1.66
				c0.99,1.09,1.49,2.8,1.49,5.11v0.27h-2.25v-0.51c0-1.36-0.31-2.43-0.92-3.21c-0.7-0.88-1.76-1.32-3.17-1.32
				c-1.32,0-2.36,0.35-3.14,1.05c-0.75,0.68-1.13,1.58-1.13,2.68c0,0.59,0.19,1.07,0.58,1.42c-0.3-0.07-0.64-0.11-1.04-0.11h-1.52
				h-0.33h-1.89v-13.37h-2.94v13.37h-4.65c-2.03,0-3.46-0.38-4.31-1.13c-0.8-0.7-1.21-1.86-1.21-3.47c0-1.34,0.25-2.56,0.76-3.67
				l-3.14,0.51c-0.38,1.06-0.58,2.22-0.58,3.5c0,2.14,0.6,3.75,1.81,4.81c1.33,1.18,3.45,1.77,6.35,1.77h9.78h0.33h15.4v-2.38
				C496.82,348.32,493.91,345.27,488.08,345.27z M489.38,354.57h-1.47c-1.4,0-2.1-0.59-2.1-1.76c0-1.02,0.56-1.53,1.67-1.53
				c1.26,0,1.89,0.88,1.89,2.65V354.57z"/>
			<path class="st4" d="M527.8,354.48h-2.42h-0.34h-1.84c0.07-1.09,0.11-2.04,0.11-2.87c0-2.11-0.24-4.17-0.72-6.16l-2.87,0.39
				c0.43,1.93,0.65,3.91,0.65,5.96c0,0.95-0.05,1.84-0.16,2.67h-0.58c-1.04,0-1.74-0.13-2.08-0.4c-0.36-0.28-0.54-0.85-0.54-1.72
				v-5.58h-2.82v5.03c0,1.9-0.59,2.84-1.78,2.84c-0.63,0-1.05-0.23-1.26-0.68c-0.18-0.38-0.27-1.11-0.27-2.18v-4.11h-2.93v4.05
				c0,1.06-0.16,1.79-0.47,2.19c-0.29,0.38-0.8,0.56-1.54,0.56h-0.77h-0.34h-1.89v-13.37h-2.93v15.68h4.82h0.34h0.75
				c1.52,0,2.51-0.52,2.96-1.55c0.38,1.15,1.37,1.73,2.95,1.73c1.71,0,2.83-0.57,3.36-1.71c0.32,0.59,0.79,1,1.42,1.23
				c0.59,0.2,1.48,0.3,2.69,0.3h5.73h0.34h5.35v-15.68h-2.93V354.48z"/>
			<rect x="534.51" y="341.12" class="st4" width="2.93" height="15.68"/>
			<path class="st4" d="M554.62,346.06c-1.53,0-2.79,0.4-3.79,1.18c-0.93,0.73-1.52,1.71-1.79,2.93h-0.53
				c-1.71,0-2.92,0.5-3.63,1.49c-0.64,0.92-0.84,2.21-0.58,3.87l1.13,7.05h2.82l-1.15-7.26c-0.17-1.04-0.15-1.77,0.04-2.19
				c0.2-0.42,0.61-0.63,1.26-0.63h0.49c0.32,2.87,2.28,4.31,5.87,4.31h4.88v-5.62C559.65,347.76,557.97,346.06,554.62,346.06z
				 M556.8,354.48h-1.69c-2.22,0-3.33-1.04-3.33-3.12c0-0.88,0.23-1.6,0.69-2.15c0.48-0.56,1.13-0.85,1.94-0.85
				c1.59,0,2.39,1.05,2.39,3.16V354.48z"/>
			<path class="st4" d="M566.64,339.05h-1.3c-1.06,0-1.59-0.28-1.59-0.85c0-0.51,0.37-0.76,1.12-0.76c0.38,0,0.76,0.04,1.13,0.11
				l0.27-1.51c-0.31-0.09-0.75-0.13-1.31-0.13c-1.08,0-1.91,0.24-2.49,0.73c-0.49,0.41-0.74,0.92-0.74,1.52
				c0,0.47,0.17,0.8,0.51,0.98c-0.28-0.06-0.72-0.09-1.34-0.09v1.53h5.73V339.05z"/>
			<polygon class="st4" points="570.43,354.48 567.65,354.48 567.31,354.48 565.42,354.48 565.42,341.79 562.48,341.79 
				562.48,356.8 567.31,356.8 567.65,356.8 573.36,356.8 573.36,346.34 570.43,346.34 			"/>
			<path class="st4" d="M570.25,358.6c-0.42,0-0.78,0.15-1.09,0.44c-0.3,0.3-0.45,0.67-0.45,1.09c0,0.43,0.15,0.8,0.45,1.1
				c0.3,0.3,0.67,0.45,1.09,0.45c0.43,0,0.79-0.15,1.09-0.46c0.3-0.3,0.46-0.66,0.46-1.09c0-0.43-0.15-0.79-0.46-1.09
				C571.03,358.75,570.67,358.6,570.25,358.6z"/>
			<path class="st4" d="M586.74,344.66c0.41,0,0.76-0.15,1.04-0.44c0.28-0.3,0.42-0.65,0.42-1.07c0-0.43-0.14-0.79-0.42-1.07
				c-0.28-0.3-0.63-0.45-1.04-0.45c-0.41,0-0.75,0.15-1.04,0.45c-0.28,0.3-0.42,0.65-0.42,1.07c0,0.42,0.14,0.77,0.42,1.07
				C585.98,344.51,586.33,344.66,586.74,344.66z"/>
			<path class="st4" d="M583.05,344.66c0.42,0,0.77-0.15,1.06-0.44c0.28-0.3,0.42-0.65,0.42-1.07c0-0.43-0.14-0.79-0.42-1.07
				c-0.29-0.3-0.64-0.45-1.06-0.45c-0.41,0-0.75,0.15-1.04,0.45c-0.28,0.3-0.42,0.65-0.42,1.07c0,0.42,0.14,0.77,0.42,1.07
				C582.29,344.51,582.64,344.66,583.05,344.66z"/>
			<path class="st4" d="M593.57,358.62c-0.41,0-0.75,0.15-1.04,0.45c-0.28,0.3-0.42,0.65-0.42,1.06c0,0.43,0.14,0.79,0.42,1.08
				c0.28,0.29,0.63,0.43,1.04,0.43c0.42,0,0.77-0.15,1.06-0.44c0.28-0.29,0.42-0.64,0.42-1.07c0-0.42-0.14-0.78-0.42-1.07
				C594.34,358.76,593.99,358.62,593.57,358.62z"/>
			<path class="st4" d="M597.26,358.62c-0.41,0-0.75,0.15-1.04,0.45c-0.28,0.3-0.42,0.65-0.42,1.06c0,0.43,0.14,0.79,0.42,1.08
				c0.28,0.29,0.63,0.43,1.04,0.43c0.41,0,0.75-0.15,1.04-0.44c0.28-0.3,0.42-0.65,0.42-1.07c0-0.42-0.14-0.78-0.42-1.07
				C598.02,358.76,597.67,358.62,597.26,358.62z"/>
			<path class="st4" d="M614.97,345.27c-1.8,0-3.6,0.29-5.39,0.87l0.27,2.1c1.63-0.54,3.21-0.8,4.76-0.8c2.19,0,3.8,0.55,4.81,1.66
				c0.99,1.09,1.49,2.8,1.49,5.11v0.27h-2.25v-0.51c0-1.36-0.31-2.43-0.92-3.21c-0.7-0.88-1.76-1.32-3.17-1.32
				c-1.32,0-2.36,0.35-3.14,1.05c-0.75,0.68-1.13,1.58-1.13,2.68c0,0.59,0.19,1.07,0.58,1.42c-0.3-0.07-0.64-0.11-1.04-0.11h-1.51
				h-0.34h-1.89v-13.37h-2.93v13.37h-2.41h-0.35h-2.68v-8.14h-2.93v8.14h-2.79h-0.33h-1.85v-7.65c-1.35-0.51-2.9-0.77-4.65-0.77
				c-1.93,0-3.43,0.56-4.48,1.69c-0.94,1.01-1.41,2.31-1.41,3.89c0,3.44,1.99,5.16,5.96,5.16h6.43h0.33h8.4h0.35h7.23h0.34h15.39
				v-2.38C623.71,348.32,620.8,345.27,614.97,345.27z M586.99,354.48h-1.42c-2.23,0-3.34-1.04-3.34-3.12c0-0.88,0.23-1.6,0.71-2.15
				c0.48-0.56,1.13-0.85,1.94-0.85c0.85,0,1.55,0.13,2.12,0.4V354.48z M616.26,354.57h-1.47c-1.4,0-2.1-0.59-2.1-1.76
				c0-1.02,0.56-1.53,1.67-1.53c1.26,0,1.89,0.88,1.89,2.65V354.57z"/>
			<polygon class="st4" points="632.85,354.48 625.97,354.48 625.97,356.8 635.78,356.8 635.78,341.5 632.85,341.5 			"/>
			<path class="st4" d="M629.84,342.43h-1.36c-0.95,0-1.42-0.24-1.42-0.72c0-0.43,0.33-0.64,1-0.64c0.48,0,0.86,0.04,1.12,0.11
				l0.26-1.51c-0.31-0.09-0.75-0.13-1.31-0.13c-1,0-1.78,0.22-2.33,0.65c-0.5,0.4-0.75,0.91-0.75,1.52c0,0.37,0.11,0.64,0.33,0.8
				c-0.28-0.06-0.65-0.09-1.13-0.09v1.53h5.6V342.43z"/>
			<polygon class="st4" points="631.22,352.81 628.88,344.7 625.86,344.7 628.24,352.81 			"/>
			<rect x="639.31" y="341.12" class="st4" width="2.93" height="15.68"/>
			<path class="st4" d="M651.96,344.66c0.42,0,0.77-0.15,1.06-0.44c0.28-0.3,0.42-0.65,0.42-1.07c0-0.43-0.14-0.79-0.42-1.07
				c-0.29-0.3-0.64-0.45-1.06-0.45c-0.41,0-0.75,0.15-1.04,0.45c-0.28,0.3-0.42,0.65-0.42,1.07c0,0.42,0.14,0.77,0.42,1.07
				C651.2,344.51,651.55,344.66,651.96,344.66z"/>
			<path class="st4" d="M655.65,344.66c0.41,0,0.76-0.15,1.04-0.44c0.28-0.3,0.42-0.65,0.42-1.07c0-0.43-0.14-0.79-0.42-1.07
				c-0.28-0.3-0.63-0.45-1.04-0.45c-0.41,0-0.75,0.15-1.04,0.45c-0.28,0.3-0.42,0.65-0.42,1.07c0,0.42,0.14,0.77,0.42,1.07
				C654.89,344.51,655.24,344.66,655.65,344.66z"/>
			<path class="st4" d="M666.17,358.62c-0.41,0-0.75,0.15-1.04,0.45c-0.28,0.3-0.42,0.65-0.42,1.06c0,0.43,0.14,0.79,0.42,1.08
				c0.28,0.29,0.63,0.43,1.04,0.43c0.41,0,0.75-0.15,1.04-0.44c0.28-0.3,0.42-0.65,0.42-1.07c0-0.42-0.14-0.78-0.42-1.07
				C666.93,358.76,666.58,358.62,666.17,358.62z"/>
			<path class="st4" d="M662.48,358.62c-0.41,0-0.75,0.15-1.04,0.45c-0.28,0.3-0.42,0.65-0.42,1.06c0,0.43,0.14,0.79,0.42,1.08
				c0.28,0.29,0.63,0.43,1.04,0.43c0.42,0,0.77-0.15,1.06-0.44c0.28-0.29,0.42-0.64,0.42-1.07c0-0.42-0.14-0.78-0.42-1.07
				C663.25,358.76,662.9,358.62,662.48,358.62z"/>
			<path class="st4" d="M688.4,344.47c0.42,0,0.78-0.15,1.09-0.45c0.3-0.3,0.45-0.67,0.45-1.09c0-0.42-0.15-0.78-0.45-1.09
				c-0.3-0.3-0.67-0.45-1.09-0.45c-0.42,0-0.78,0.15-1.09,0.45c-0.3,0.3-0.45,0.67-0.45,1.09c0,0.43,0.15,0.8,0.45,1.1
				C687.61,344.33,687.97,344.47,688.4,344.47z"/>
			<path class="st4" d="M694.02,344.66c0.42,0,0.77-0.15,1.06-0.44c0.28-0.3,0.42-0.65,0.42-1.07c0-0.43-0.14-0.79-0.42-1.07
				c-0.29-0.3-0.64-0.45-1.06-0.45c-0.41,0-0.75,0.15-1.04,0.45c-0.28,0.3-0.42,0.65-0.42,1.07c0,0.42,0.14,0.77,0.42,1.07
				C693.26,344.51,693.61,344.66,694.02,344.66z"/>
			<path class="st4" d="M697.71,344.66c0.41,0,0.75-0.15,1.04-0.44c0.28-0.3,0.42-0.65,0.42-1.07c0-0.43-0.14-0.79-0.42-1.07
				c-0.28-0.3-0.63-0.45-1.04-0.45c-0.41,0-0.75,0.15-1.04,0.45c-0.28,0.3-0.42,0.65-0.42,1.07c0,0.42,0.14,0.77,0.42,1.07
				C696.95,344.51,697.3,344.66,697.71,344.66z"/>
			<path class="st4" d="M702.16,354.48h-2.42h-0.34h-1.64v-8.14h-2.93v8.14h-2.78h-0.34h-1.85v-8.14h-2.93v8.14h-2.77h-0.35h-1.52
				v-3.31c0-3.41-1.68-5.11-5.03-5.11c-1.84,0-3.29,0.55-4.34,1.64c-0.96,1-1.43,2.25-1.43,3.76c0,1.12-0.23,1.92-0.68,2.39
				c-0.41,0.43-1.05,0.64-1.92,0.64h-2.25v-8.14h-2.93v8.14h-2.79h-0.33h-1.85v-7.65c-1.35-0.51-2.9-0.77-4.65-0.77
				c-1.93,0-3.43,0.56-4.48,1.69c-0.94,1.01-1.41,2.31-1.41,3.89c0,3.44,1.99,5.16,5.96,5.16h6.43h0.33h7.97h0.34h0.45v-0.02
				c1.64-0.09,2.67-0.66,3.08-1.72c0.93,1.16,2.59,1.74,4.98,1.74h6.08h0.35h7.55h0.34h7.35h0.34h5.35v-15.68h-2.93V354.48z
				 M655.9,354.48h-1.42c-2.23,0-3.34-1.04-3.34-3.12c0-0.88,0.23-1.6,0.71-2.15c0.48-0.56,1.13-0.85,1.94-0.85
				c0.85,0,1.55,0.13,2.12,0.4V354.48z M679.43,354.48h-1.69c-2.22,0-3.33-1.04-3.33-3.12c0-0.88,0.23-1.6,0.69-2.15
				c0.48-0.56,1.14-0.85,1.95-0.85c1.59,0,2.38,1.05,2.38,3.16V354.48z"/>
			<rect x="708.64" y="341.12" class="st4" width="2.93" height="15.68"/>
			<path class="st4" d="M724.98,344.66c0.41,0,0.76-0.15,1.04-0.44c0.28-0.3,0.42-0.65,0.42-1.07c0-0.43-0.14-0.79-0.42-1.07
				c-0.28-0.3-0.63-0.45-1.04-0.45c-0.41,0-0.75,0.15-1.04,0.45c-0.28,0.3-0.42,0.65-0.42,1.07c0,0.42,0.14,0.77,0.42,1.07
				C724.22,344.51,724.57,344.66,724.98,344.66z"/>
			<path class="st4" d="M721.29,344.66c0.42,0,0.77-0.15,1.06-0.44c0.28-0.3,0.42-0.65,0.42-1.07c0-0.43-0.14-0.79-0.42-1.07
				c-0.29-0.3-0.64-0.45-1.06-0.45c-0.41,0-0.75,0.15-1.04,0.45c-0.28,0.3-0.42,0.65-0.42,1.07c0,0.42,0.14,0.77,0.42,1.07
				C720.53,344.51,720.88,344.66,721.29,344.66z"/>
			<path class="st4" d="M735.5,358.62c-0.41,0-0.75,0.15-1.04,0.45c-0.28,0.3-0.42,0.65-0.42,1.06c0,0.43,0.14,0.79,0.42,1.08
				c0.28,0.29,0.63,0.43,1.04,0.43c0.41,0,0.75-0.15,1.04-0.44c0.28-0.3,0.42-0.65,0.42-1.07c0-0.42-0.14-0.78-0.42-1.07
				C736.26,358.76,735.92,358.62,735.5,358.62z"/>
			<path class="st4" d="M731.81,358.62c-0.41,0-0.75,0.15-1.04,0.45c-0.28,0.3-0.42,0.65-0.42,1.06c0,0.43,0.14,0.79,0.42,1.08
				s0.63,0.43,1.04,0.43c0.42,0,0.77-0.15,1.06-0.44c0.28-0.29,0.42-0.64,0.42-1.07c0-0.42-0.14-0.78-0.42-1.07
				C732.59,358.76,732.23,358.62,731.81,358.62z"/>
			<path class="st4" d="M777.15,347.85c-1.12-1.09-2.91-1.64-5.36-1.64c-0.85,0-1.8,0.07-2.84,0.21v2.29
				c0.88-0.12,1.73-0.18,2.55-0.18c1.56,0,2.69,0.36,3.39,1.08c0.65,0.68,0.98,1.74,0.98,3.19c0,0.54-0.04,1.1-0.11,1.69h-8.26
				h-0.35h-1.52v-3.31c0-3.41-1.68-5.11-5.03-5.11c-1.84,0-3.29,0.55-4.34,1.64c-0.96,1-1.43,2.25-1.43,3.76
				c0,1.12-0.23,1.92-0.68,2.39c-0.41,0.43-1.05,0.64-1.92,0.64h-0.69c-0.85,0-1.68-0.19-2.48-0.57c1.51-1.27,2.27-2.69,2.27-4.27
				c0-1.05-0.37-1.9-1.1-2.55c-0.83-0.73-2.03-1.1-3.59-1.1c-2.01,0-4.15,0.82-6.43,2.46l-0.24,2.1c1.14,0.31,2.69,1.39,4.67,3.25
				c-1.4,0.46-3.13,0.68-5.18,0.68H739h-0.35h-2.68v-8.14h-2.93v8.14h-2.79h-0.33h-1.85v-7.65c-1.35-0.51-2.9-0.77-4.65-0.77
				c-1.93,0-3.43,0.56-4.48,1.69c-0.94,1.01-1.41,2.31-1.41,3.89c0,3.44,1.99,5.16,5.96,5.16h6.43h0.33h8.4H739h0.25
				c2.84,0,5.28-0.46,7.34-1.38c1.38,0.92,2.91,1.38,4.58,1.38h1.03h0.34h0.43v-0.02c1.64-0.09,2.68-0.65,3.09-1.72
				c0.93,1.16,2.59,1.74,4.98,1.74h6.08h0.35h10.9c0.25-1.51,0.38-2.88,0.38-4.11C778.76,350.5,778.22,348.89,777.15,347.85z
				 M725.23,354.48h-1.42c-2.23,0-3.34-1.04-3.34-3.12c0-0.88,0.23-1.6,0.71-2.15c0.48-0.56,1.13-0.85,1.94-0.85
				c0.85,0,1.55,0.13,2.12,0.4V354.48z M747.01,352.55c-2.16-1.82-3.54-2.84-4.11-3.07c1.33-0.89,2.46-1.34,3.38-1.34
				c0.69,0,1.22,0.18,1.6,0.54c0.35,0.33,0.52,0.77,0.52,1.32C748.39,350.98,747.93,351.83,747.01,352.55z M762.75,354.48h-1.69
				c-2.22,0-3.33-1.04-3.33-3.12c0-0.88,0.23-1.6,0.69-2.15c0.48-0.56,1.14-0.85,1.95-0.85c1.59,0,2.38,1.05,2.38,3.16V354.48z"/>
			<path class="st4" d="M772.4,358.6c-0.42,0-0.78,0.15-1.07,0.44c-0.3,0.3-0.46,0.67-0.46,1.09c0,0.43,0.15,0.8,0.46,1.1
				c0.3,0.3,0.65,0.45,1.07,0.45c0.43,0,0.79-0.15,1.09-0.46c0.3-0.3,0.46-0.66,0.46-1.09c0-0.43-0.15-0.79-0.46-1.09
				C773.19,358.75,772.83,358.6,772.4,358.6z"/>
		</g>
		<g>
			<g>
				<path class="st4" d="M597.85,373.39c0.26,0,0.49-0.09,0.68-0.28c0.18-0.18,0.27-0.41,0.27-0.67s-0.09-0.49-0.27-0.67
					c-0.19-0.18-0.41-0.27-0.68-0.27c-0.26,0-0.49,0.09-0.68,0.27c-0.18,0.18-0.27,0.4-0.27,0.66c0,0.27,0.09,0.49,0.27,0.68
					C597.36,373.29,597.58,373.39,597.85,373.39z"/>
				<path class="st4" d="M604.53,383.58c-0.25,0-0.46,0.09-0.64,0.28c-0.18,0.19-0.27,0.4-0.27,0.65c0,0.26,0.09,0.49,0.27,0.68
					c0.18,0.18,0.39,0.27,0.64,0.27c0.26,0,0.48-0.09,0.66-0.27c0.17-0.18,0.26-0.41,0.26-0.68c0-0.26-0.09-0.48-0.26-0.66
					C605.01,383.68,604.79,383.58,604.53,383.58z"/>
				<path class="st4" d="M606.25,380.85h-2.8h-0.23h-1.11c0.05-0.47,0.08-0.97,0.08-1.51c0-1.52-0.36-2.65-1.09-3.38
					c-0.76-0.76-1.99-1.15-3.68-1.15c-0.62,0-1.26,0.05-1.91,0.14v1.34c0.51-0.09,1.1-0.13,1.75-0.13c1.17,0,2.02,0.27,2.52,0.82
					c0.48,0.51,0.71,1.33,0.71,2.45c0,0.48-0.03,0.95-0.09,1.42h-1.18c-1.68,0-2.94,0.32-3.79,0.95c-0.75,0.56-1.12,1.34-1.12,2.35
					c0,0.93,0.36,1.66,1.07,2.19c0.75,0.56,1.84,0.84,3.27,0.84c1.01,0,2.03-0.11,3.04-0.33l-0.13-1.32c-0.97,0.2-1.88,0.3-2.73,0.3
					c-0.93,0-1.64-0.17-2.13-0.52c-0.46-0.32-0.68-0.74-0.68-1.28c0-1.22,1.05-1.82,3.14-1.82h4.08h0.23h4.52v-7.31h-1.72V380.85z"
					/>
				<path class="st4" d="M606.96,383.58c-0.26,0-0.48,0.09-0.65,0.28c-0.18,0.18-0.27,0.4-0.27,0.65c0,0.26,0.09,0.49,0.27,0.68
					c0.18,0.18,0.39,0.27,0.65,0.27c0.25,0,0.47-0.09,0.65-0.27c0.18-0.19,0.27-0.41,0.27-0.68c0-0.26-0.09-0.48-0.27-0.66
					C607.42,383.68,607.21,383.58,606.96,383.58z"/>
				<path class="st4" d="M612.52,382.39c0,0.9-0.17,1.54-0.5,1.92c-0.3,0.34-0.76,0.52-1.4,0.52c-0.51,0-0.98-0.07-1.41-0.22
					l-0.17,1.37c0.47,0.13,0.97,0.2,1.5,0.2c2.47,0,3.7-1.3,3.7-3.9v-7.39h-1.71V382.39z"/>
				<path class="st4" d="M624.04,373.57c0.26,0,0.48-0.09,0.65-0.27c0.18-0.18,0.27-0.4,0.27-0.66c0-0.25-0.09-0.47-0.27-0.65
					c-0.18-0.18-0.39-0.27-0.65-0.27c-0.25,0-0.47,0.09-0.65,0.27c-0.18,0.18-0.27,0.4-0.27,0.65c0,0.27,0.09,0.49,0.27,0.67
					C623.58,373.48,623.79,373.57,624.04,373.57z"/>
				<path class="st4" d="M621.62,373.57c0.26,0,0.48-0.09,0.65-0.27c0.18-0.18,0.27-0.4,0.27-0.66c0-0.26-0.09-0.48-0.27-0.65
					c-0.17-0.18-0.39-0.27-0.65-0.27c-0.25,0-0.46,0.09-0.64,0.27c-0.18,0.18-0.27,0.4-0.27,0.65c0,0.26,0.09,0.49,0.27,0.67
					C621.16,373.48,621.37,373.57,621.62,373.57z"/>
				<path class="st4" d="M627.22,383.58c-0.26,0-0.49,0.09-0.67,0.28c-0.19,0.18-0.28,0.4-0.28,0.67c0,0.26,0.09,0.49,0.28,0.68
					c0.18,0.18,0.41,0.27,0.67,0.27c0.26,0,0.49-0.09,0.68-0.27c0.18-0.19,0.27-0.41,0.27-0.68c0-0.26-0.09-0.49-0.27-0.67
					C627.71,383.68,627.48,383.58,627.22,383.58z"/>
				<polygon class="st4" points="627.45,380.85 625.46,380.85 625.23,380.85 623.95,380.85 623.95,374.89 622.24,374.89 
					622.24,380.85 620.25,380.85 620.02,380.85 618.61,380.85 618.61,371.24 616.9,371.24 616.9,382.2 620.02,382.2 620.25,382.2 
					625.23,382.2 625.46,382.2 629.16,382.2 629.16,374.89 627.45,374.89 				"/>
				<path class="st4" d="M690.88,378.22c0-2.34-1.14-3.52-3.42-3.52c-1.25,0-2.23,0.38-2.95,1.15c-0.66,0.7-0.99,1.58-0.99,2.65
					c0,1.17,0.34,1.98,1.02,2.44c-0.23-0.06-0.52-0.09-0.89-0.09h-0.82h-0.25h-1.19v-2.63c0-2.34-1.14-3.52-3.43-3.52
					c-1.07,0-1.95,0.29-2.63,0.87c-0.64,0.53-1.05,1.24-1.21,2.12h-0.42c-1.13,0-1.93,0.33-2.4,1c-0.44,0.62-0.56,1.49-0.39,2.6
					l0.8,4.94h1.65l-0.81-5.07c-0.12-0.76-0.1-1.31,0.08-1.64c0.17-0.33,0.51-0.49,1.02-0.49h0.4c0.17,2.11,1.53,3.16,4.08,3.16
					h4.46h0.25h8.06V378.22z M679.71,380.85h-1.38c-1.74,0-2.61-0.81-2.61-2.43c0-0.71,0.19-1.28,0.56-1.7
					c0.38-0.44,0.9-0.66,1.56-0.66c1.25,0,1.88,0.81,1.88,2.43V380.85z M689.21,380.85h-1.38c-1.74,0-2.61-0.81-2.61-2.43
					c0-0.71,0.19-1.28,0.56-1.7c0.38-0.44,0.9-0.66,1.56-0.66c1.25,0,1.88,0.81,1.88,2.43V380.85z"/>
				<path class="st4" d="M688.5,373.57c0.26,0,0.48-0.09,0.65-0.27c0.18-0.18,0.27-0.4,0.27-0.66c0-0.25-0.09-0.47-0.27-0.65
					c-0.18-0.18-0.39-0.27-0.65-0.27c-0.25,0-0.47,0.09-0.65,0.27c-0.18,0.18-0.27,0.4-0.27,0.65c0,0.27,0.09,0.49,0.27,0.67
					C688.02,373.48,688.24,373.57,688.5,373.57z"/>
				<path class="st4" d="M686.07,373.57c0.26,0,0.48-0.09,0.65-0.27c0.18-0.18,0.27-0.4,0.27-0.66c0-0.26-0.09-0.48-0.27-0.65
					c-0.18-0.18-0.39-0.27-0.65-0.27c-0.25,0-0.46,0.09-0.64,0.27c-0.18,0.18-0.27,0.4-0.27,0.65c0,0.26,0.09,0.49,0.27,0.67
					C685.61,373.48,685.82,373.57,686.07,373.57z"/>
				<path class="st4" d="M699.19,383.58c-0.26,0-0.49,0.09-0.67,0.28c-0.19,0.18-0.28,0.4-0.28,0.67c0,0.26,0.09,0.49,0.28,0.68
					c0.18,0.18,0.41,0.27,0.67,0.27s0.49-0.09,0.68-0.27c0.18-0.19,0.27-0.41,0.27-0.68c0-0.26-0.09-0.49-0.27-0.67
					C699.68,383.68,699.45,383.58,699.19,383.58z"/>
				<path class="st4" d="M699.43,380.85h-1.98h-0.24h-1.39v-5.96h-1.71v7.5c0,0.9-0.17,1.54-0.5,1.92c-0.3,0.34-0.76,0.52-1.4,0.52
					c-0.51,0-0.98-0.07-1.41-0.22l-0.17,1.37c0.47,0.13,0.97,0.2,1.5,0.2c2.47,0,3.7-1.3,3.7-3.9v-0.08h1.39h0.24h3.69v-7.31h-1.71
					V380.85z"/>
				<path class="st4" d="M708.73,373.57c0.26,0,0.48-0.09,0.66-0.27c0.17-0.18,0.26-0.4,0.26-0.66c0-0.26-0.09-0.48-0.26-0.65
					c-0.18-0.18-0.4-0.27-0.66-0.27c-0.25,0-0.46,0.09-0.64,0.27c-0.18,0.18-0.27,0.4-0.27,0.65c0,0.26,0.09,0.49,0.27,0.67
					C708.27,373.48,708.48,373.57,708.73,373.57z"/>
				<path class="st4" d="M711.16,373.57c0.25,0,0.47-0.09,0.65-0.27c0.18-0.18,0.27-0.4,0.27-0.66c0-0.25-0.09-0.47-0.27-0.65
					c-0.18-0.18-0.39-0.27-0.65-0.27c-0.26,0-0.48,0.09-0.65,0.27c-0.18,0.18-0.27,0.4-0.27,0.65c0,0.27,0.09,0.49,0.27,0.67
					C710.68,373.48,710.9,373.57,711.16,373.57z"/>
				<path class="st4" d="M723.54,383.58c-0.26,0-0.49,0.09-0.67,0.28c-0.19,0.18-0.28,0.4-0.28,0.67c0,0.26,0.09,0.49,0.28,0.68
					c0.18,0.18,0.41,0.27,0.67,0.27c0.27,0,0.49-0.09,0.68-0.27c0.18-0.19,0.27-0.41,0.27-0.68c0-0.26-0.09-0.49-0.27-0.67
					C724.03,383.68,723.81,383.58,723.54,383.58z"/>
				<path class="st4" d="M747.68,374.71c-1.25,0-2.23,0.38-2.95,1.15c-0.66,0.7-0.99,1.58-0.99,2.65c0,1.17,0.34,1.98,1.02,2.44
					c-0.23-0.06-0.52-0.09-0.89-0.09h-0.83h-0.24h-1.39c0.06-0.73,0.09-1.46,0.09-2.16c0-1.54-0.18-2.99-0.53-4.37l-1.66,0.28
					c0.32,1.3,0.49,2.71,0.49,4.21c0,0.59-0.04,1.27-0.11,2.04h-0.46c-0.82,0-1.36-0.1-1.63-0.3c-0.3-0.22-0.46-0.69-0.46-1.39
					v-3.96h-1.63v3.49c0,1.52-0.48,2.29-1.44,2.29c-0.52,0-0.86-0.19-1.02-0.58c-0.13-0.29-0.19-0.87-0.19-1.72v-2.85h-1.71v2.99
					c0,0.77-0.12,1.31-0.35,1.61c-0.22,0.28-0.61,0.43-1.16,0.43h-0.47h-0.24h-1.09c0.05-0.47,0.08-0.97,0.08-1.51
					c0-1.52-0.36-2.65-1.09-3.38c-0.77-0.76-2-1.15-3.68-1.15c-0.62,0-1.26,0.05-1.91,0.14v1.34c0.51-0.09,1.1-0.13,1.76-0.13
					c1.17,0,2.01,0.27,2.52,0.82c0.48,0.51,0.71,1.33,0.71,2.45c0,0.48-0.03,0.95-0.1,1.42h-5.99h-0.24h-1.39v-9.61h-1.72v9.61
					h-1.83h-0.24h-1.4v-5.6c-0.94-0.36-2-0.55-3.19-0.55c-1.3,0-2.3,0.39-3.02,1.17c-0.65,0.7-0.97,1.6-0.97,2.7
					c0,2.41,1.37,3.62,4.12,3.62h4.46h0.24h4.94h0.24h8.8h0.24h0.46c1.1,0,1.8-0.39,2.09-1.17c0.25,0.85,0.93,1.28,2.04,1.28
					c1.2,0,1.98-0.43,2.35-1.28c0.22,0.45,0.56,0.76,1.02,0.93c0.44,0.16,1.12,0.24,2.05,0.24h3.66h0.24h8.07v-3.98
					C751.1,375.88,749.96,374.71,747.68,374.71z M711.62,380.85h-1.2c-1.74,0-2.61-0.82-2.61-2.45c0-0.7,0.19-1.26,0.56-1.69
					c0.38-0.43,0.9-0.65,1.56-0.65c0.67,0,1.24,0.11,1.69,0.33V380.85z M749.43,380.85h-1.38c-1.74,0-2.61-0.81-2.61-2.43
					c0-0.71,0.19-1.28,0.56-1.7c0.38-0.44,0.9-0.66,1.56-0.66c1.25,0,1.88,0.81,1.88,2.43V380.85z"/>
			</g>
			<g>
				<path class="st4" d="M640.46,373.62c-0.06-0.02-0.18-0.04-0.36-0.06c-0.18-0.02-0.4-0.03-0.68-0.03c-0.55,0-1.02,0.05-1.42,0.15
					c-0.39,0.1-0.72,0.23-0.97,0.4c-0.25,0.17-0.44,0.37-0.56,0.6c-0.12,0.23-0.18,0.47-0.18,0.73c0,0.33,0.11,0.61,0.33,0.82
					c0.22,0.22,0.51,0.39,0.86,0.52c0.35,0.13,0.73,0.23,1.15,0.29c0.42,0.06,0.83,0.11,1.22,0.14v1.17
					c-1.07,0.22-1.9,0.55-2.5,1.01c-0.6,0.46-0.9,0.98-0.9,1.57c0,0.2,0.04,0.38,0.12,0.56c0.08,0.18,0.2,0.33,0.38,0.47
					c0.18,0.14,0.4,0.24,0.68,0.33c0.28,0.08,0.62,0.12,1.03,0.12c0.58,0,1.06-0.04,1.44-0.12c0.38-0.08,0.64-0.15,0.77-0.2
					l0.17,1.18c-0.06,0.02-0.18,0.05-0.34,0.09c-0.17,0.04-0.36,0.08-0.58,0.12c-0.22,0.04-0.46,0.07-0.72,0.09
					c-0.26,0.03-0.51,0.04-0.76,0.04c-0.72,0-1.31-0.08-1.77-0.24c-0.47-0.16-0.83-0.37-1.1-0.61s-0.46-0.52-0.56-0.82
					c-0.1-0.3-0.16-0.58-0.16-0.85c0-0.77,0.28-1.43,0.83-1.98c0.55-0.55,1.35-0.96,2.37-1.23c-1.05-0.13-1.86-0.39-2.44-0.77
					c-0.58-0.38-0.87-0.97-0.87-1.77c0-0.4,0.1-0.79,0.29-1.15c0.19-0.36,0.47-0.68,0.85-0.96c0.37-0.27,0.84-0.49,1.39-0.65
					c0.55-0.16,1.19-0.24,1.92-0.24c0.32,0,0.59,0.01,0.79,0.04c0.21,0.03,0.34,0.05,0.41,0.07L640.46,373.62z"/>
				<path class="st4" d="M647.78,383.38h-1.35l-0.47-10.78h1.35L647.78,383.38z"/>
				<path class="st4" d="M655.72,383.02c-0.58,0-1.1-0.07-1.56-0.22c-0.46-0.14-0.84-0.38-1.16-0.71c-0.32-0.33-0.56-0.74-0.73-1.25
					c-0.17-0.51-0.26-1.13-0.26-1.87c0-0.68,0.07-1.38,0.22-2.09c0.15-0.71,0.37-1.36,0.67-1.94c0.3-0.58,0.68-1.06,1.14-1.43
					c0.46-0.37,1.01-0.56,1.66-0.56c0.65,0,1.22,0.19,1.7,0.56c0.48,0.37,0.87,0.85,1.17,1.43c0.31,0.58,0.53,1.23,0.68,1.94
					c0.14,0.71,0.22,1.41,0.22,2.09c0,0.71-0.09,1.31-0.26,1.83c-0.17,0.51-0.42,0.93-0.73,1.26c-0.32,0.33-0.71,0.57-1.17,0.72
					C656.84,382.94,656.31,383.02,655.72,383.02z M655.72,381.77c0.81,0,1.4-0.22,1.78-0.67c0.38-0.45,0.57-1.16,0.57-2.13
					c0-0.51-0.05-1.04-0.15-1.59c-0.1-0.55-0.24-1.07-0.44-1.53c-0.19-0.47-0.44-0.85-0.73-1.16c-0.3-0.31-0.64-0.46-1.02-0.46
					c-0.39,0-0.73,0.15-1.02,0.46c-0.28,0.31-0.53,0.69-0.72,1.16c-0.2,0.47-0.34,0.98-0.44,1.53s-0.14,1.09-0.14,1.59
					c0,0.99,0.19,1.7,0.56,2.14C654.35,381.55,654.93,381.77,655.72,381.77z"/>
				<path class="st4" d="M661.46,372.6h6.38v1.26h-4.96l0.42,9.52h-1.35L661.46,372.6z"/>
			</g>
			<g>
				<path class="st4" d="M490.81,383.31h6.69v1.21h-6.69V383.31z"/>
				<path class="st4" d="M505.85,376.8c0.61,0,1.13,0.09,1.56,0.28c0.43,0.19,0.78,0.44,1.06,0.77c0.27,0.33,0.47,0.72,0.6,1.17
					c0.12,0.46,0.19,0.95,0.19,1.49v3.64c-0.29,0.09-0.92,0.18-1.9,0.26c-0.97,0.08-2.34,0.12-4.09,0.12h-6.16v-1.21h2.32
					c-0.11-0.09-0.23-0.22-0.34-0.37c-0.11-0.16-0.22-0.33-0.32-0.54c-0.1-0.2-0.18-0.43-0.24-0.67c-0.06-0.24-0.09-0.51-0.09-0.79
					c0-0.48,0.08-0.9,0.25-1.28c0.17-0.38,0.39-0.7,0.66-0.96c0.27-0.26,0.59-0.47,0.95-0.61c0.36-0.14,0.73-0.21,1.11-0.21
					c0.19,0,0.39,0.02,0.61,0.05c0.22,0.04,0.44,0.1,0.65,0.18C503.52,377.24,504.59,376.8,505.85,376.8z M503.27,383.31v-1.96
					c0-0.68-0.15-1.23-0.46-1.63s-0.74-0.61-1.31-0.61c-0.28,0-0.52,0.05-0.73,0.16s-0.38,0.24-0.51,0.41
					c-0.13,0.17-0.24,0.37-0.3,0.59s-0.1,0.46-0.1,0.71c0,0.4,0.05,0.75,0.15,1.05c0.1,0.3,0.23,0.54,0.4,0.72
					c0.17,0.19,0.36,0.33,0.59,0.42c0.23,0.09,0.47,0.14,0.73,0.14H503.27z M504.62,383.31c0.38,0,0.76-0.01,1.12-0.02
					c0.36-0.02,0.69-0.03,0.98-0.05c0.29-0.02,0.54-0.04,0.75-0.06c0.21-0.03,0.35-0.05,0.44-0.07v-2.49c0-0.39-0.04-0.75-0.12-1.07
					c-0.08-0.32-0.2-0.59-0.38-0.82c-0.18-0.22-0.4-0.39-0.68-0.51c-0.28-0.12-0.63-0.18-1.04-0.18c-0.36,0-0.72,0.07-1.06,0.22
					s-0.63,0.32-0.87,0.53c0.25,0.26,0.46,0.58,0.62,0.97s0.25,0.86,0.25,1.42V383.31z"/>
				<path class="st4" d="M515.71,384.53h-1.35l-0.47-10.78h1.35L515.71,384.53z"/>
				<path class="st4" d="M526.2,374.78c-0.06-0.02-0.18-0.04-0.36-0.06c-0.18-0.02-0.4-0.03-0.68-0.03c-0.55,0-1.02,0.05-1.42,0.15
					c-0.39,0.1-0.72,0.23-0.97,0.4c-0.25,0.17-0.44,0.37-0.56,0.6c-0.12,0.23-0.18,0.47-0.18,0.73c0,0.33,0.11,0.61,0.33,0.82
					c0.22,0.22,0.51,0.39,0.86,0.52c0.35,0.13,0.73,0.23,1.15,0.29c0.42,0.06,0.83,0.11,1.22,0.14v1.17
					c-1.07,0.22-1.9,0.55-2.5,1.01c-0.6,0.46-0.9,0.98-0.9,1.57c0,0.2,0.04,0.38,0.12,0.56c0.08,0.18,0.2,0.33,0.38,0.47
					c0.18,0.14,0.4,0.24,0.68,0.33c0.28,0.08,0.62,0.12,1.03,0.12c0.58,0,1.06-0.04,1.44-0.12c0.38-0.08,0.64-0.15,0.77-0.2
					l0.17,1.18c-0.06,0.02-0.18,0.05-0.34,0.09c-0.17,0.04-0.36,0.08-0.58,0.12c-0.22,0.04-0.46,0.07-0.72,0.09
					c-0.26,0.03-0.51,0.04-0.76,0.04c-0.72,0-1.31-0.08-1.77-0.24c-0.47-0.16-0.84-0.37-1.1-0.61c-0.27-0.25-0.46-0.52-0.56-0.82
					c-0.1-0.3-0.16-0.58-0.16-0.85c0-0.77,0.28-1.43,0.83-1.98c0.55-0.55,1.35-0.96,2.37-1.23c-1.05-0.13-1.86-0.39-2.44-0.77
					c-0.58-0.38-0.87-0.97-0.87-1.77c0-0.4,0.1-0.79,0.29-1.15c0.19-0.36,0.47-0.68,0.85-0.96c0.37-0.27,0.84-0.49,1.39-0.65
					c0.55-0.16,1.19-0.24,1.92-0.24c0.32,0,0.59,0.01,0.79,0.04c0.21,0.03,0.34,0.05,0.4,0.07L526.2,374.78z"/>
				<path class="st4" d="M535.09,374.78c-0.06-0.02-0.18-0.04-0.36-0.06c-0.18-0.02-0.4-0.03-0.68-0.03c-0.55,0-1.02,0.05-1.42,0.15
					c-0.39,0.1-0.72,0.23-0.97,0.4c-0.25,0.17-0.44,0.37-0.56,0.6c-0.12,0.23-0.18,0.47-0.18,0.73c0,0.33,0.11,0.61,0.33,0.82
					c0.22,0.22,0.51,0.39,0.86,0.52c0.35,0.13,0.73,0.23,1.15,0.29c0.42,0.06,0.83,0.11,1.22,0.14v1.17
					c-1.07,0.22-1.9,0.55-2.5,1.01c-0.6,0.46-0.9,0.98-0.9,1.57c0,0.2,0.04,0.38,0.12,0.56c0.08,0.18,0.2,0.33,0.38,0.47
					c0.18,0.14,0.4,0.24,0.68,0.33c0.28,0.08,0.62,0.12,1.03,0.12c0.58,0,1.06-0.04,1.44-0.12c0.38-0.08,0.64-0.15,0.77-0.2
					l0.17,1.18c-0.06,0.02-0.18,0.05-0.34,0.09c-0.17,0.04-0.36,0.08-0.58,0.12c-0.22,0.04-0.46,0.07-0.72,0.09
					c-0.26,0.03-0.51,0.04-0.76,0.04c-0.72,0-1.31-0.08-1.77-0.24c-0.47-0.16-0.84-0.37-1.1-0.61c-0.27-0.25-0.46-0.52-0.56-0.82
					c-0.1-0.3-0.16-0.58-0.16-0.85c0-0.77,0.28-1.43,0.83-1.98s1.35-0.96,2.37-1.23c-1.05-0.13-1.86-0.39-2.44-0.77
					c-0.58-0.38-0.87-0.97-0.87-1.77c0-0.4,0.1-0.79,0.29-1.15c0.19-0.36,0.47-0.68,0.85-0.96c0.37-0.27,0.84-0.49,1.39-0.65
					c0.55-0.16,1.19-0.24,1.92-0.24c0.32,0,0.59,0.01,0.79,0.04c0.21,0.03,0.34,0.05,0.4,0.07L535.09,374.78z"/>
				<path class="st4" d="M539.37,377.14c0.02,0.01,0.12,0.03,0.29,0.05c0.17,0.03,0.38,0.04,0.61,0.04c0.2,0,0.39-0.01,0.58-0.04
					c0.19-0.03,0.3-0.04,0.33-0.05v-3.28l1.14-0.23v3.52c0.03,0.01,0.13,0.03,0.3,0.05c0.17,0.03,0.37,0.04,0.6,0.04
					c0.2,0,0.39-0.01,0.59-0.04c0.2-0.03,0.31-0.04,0.33-0.05v-3.28l1.14-0.23v4.4c-0.06,0.02-0.26,0.07-0.58,0.15
					c-0.33,0.08-0.74,0.12-1.24,0.12c-0.4,0-0.75-0.03-1.03-0.08c-0.28-0.05-0.51-0.1-0.68-0.16c-0.14,0.05-0.33,0.1-0.55,0.15
					c-0.22,0.05-0.48,0.07-0.77,0.07c-0.27,0-0.49-0.01-0.66-0.04c-0.17-0.03-0.28-0.05-0.33-0.07l0.3,6.36h-1.31l-0.47-10.67
					l1.28-0.23L539.37,377.14z"/>
				<path class="st4" d="M547.04,387.4h-1.48l5.27-15.06h1.45L547.04,387.4z"/>
				<path class="st4" d="M558.81,380.03c-0.66,0-1.21-0.1-1.65-0.31c-0.44-0.21-0.78-0.47-1.03-0.79c-0.25-0.32-0.43-0.67-0.53-1.06
					c-0.1-0.38-0.15-0.75-0.15-1.1c0-0.6,0.09-1.11,0.26-1.53c0.18-0.42,0.41-0.76,0.72-1.01c0.3-0.25,0.64-0.44,1.03-0.55
					c0.38-0.11,0.79-0.17,1.21-0.17c0.91,0,1.65,0.25,2.21,0.76c0.56,0.51,0.87,1.32,0.92,2.44l0.31,7.82h-1.29l-0.19-4.71
					c-0.22,0.06-0.48,0.11-0.79,0.16C559.53,380.01,559.18,380.03,558.81,380.03z M558.95,378.9c0.45,0,0.8-0.03,1.06-0.09
					c0.26-0.06,0.44-0.11,0.54-0.15l-0.09-1.98c-0.03-0.64-0.19-1.15-0.47-1.51c-0.28-0.36-0.72-0.54-1.32-0.54
					c-0.6,0-1.06,0.18-1.38,0.54c-0.32,0.36-0.48,0.87-0.48,1.51c0,0.82,0.17,1.39,0.51,1.72
					C557.66,378.73,558.2,378.9,558.95,378.9z"/>
				<path class="st4" d="M567.93,387.4h-1.48l5.27-15.06h1.45L567.93,387.4z"/>
				<path class="st4" d="M578.16,384.53h-1.35l-0.47-10.78h1.35L578.16,384.53z"/>
				<path class="st4" d="M582.95,373.75h6.38v1.26h-4.96l0.42,9.52h-1.35L582.95,373.75z"/>
			</g>
		</g>
	</g>
</g>
<g id="Layer_4" class="st0">
	<g class="st1">
		<circle class="st2" cx="620.96" cy="235.73" r="12.45"/>
		<circle class="st2" cx="620.96" cy="201.88" r="12.45"/>
		<g>
			<path class="st3" d="M648.18,234.4c-4.1,13.21-17.33,22.88-23.02,35.92c-4.24,9.71,4.51,16.88,7.32,22.04
				c12-15.96,29.02-38.89,31.57-58.58c2.89-22.3-11.21-40.03-29.41-54.25C648.46,196.23,654.45,214.23,648.18,234.4z"/>
			<path class="st3" d="M593.73,234.4c4.1,13.21,17.33,22.88,23.02,35.92c4.24,9.71-4.51,16.88-7.32,22.04
				c-12-15.96-29.02-38.89-31.57-58.58c-2.89-22.3,11.21-40.03,29.41-54.25C593.46,196.23,587.47,214.23,593.73,234.4z"/>
		</g>
		<g>
			<path class="st4" d="M559.7,290.55c-14.7,2.31-27.05,14.87-41.82,18.89c-10.99,2.99-17.26-7.43-22.31-11.23
				c18.85-10.28,45.92-24.81,67.28-24.45c24.19,0.41,40.85,18.18,53.14,39.77C600.36,296.21,582.13,287.03,559.7,290.55z"/>
			<circle class="st5" cx="559.35" cy="253.78" r="12.45"/>
			<path class="st4" d="M682.22,290.55c14.7,2.31,27.05,14.87,41.82,18.89c10.99,2.99,17.26-7.43,22.31-11.23
				c-18.85-10.28-45.92-24.81-67.28-24.45c-24.19,0.41-40.85,18.18-53.14,39.77C641.55,296.21,659.78,287.03,682.22,290.55z"/>
			<circle class="st5" cx="682.57" cy="253.78" r="12.45"/>
		</g>
	</g>
</g>
<g id="Layer_3" class="st0">
	<rect x="399.41" y="230.27" class="st6" width="115.96" height="59.87"/>
	<rect x="658.61" y="383.52" class="st7" width="115.96" height="59.87"/>
</g>
<g id="Layer_2">
	<g>
		<g>
			<circle class="st2" cx="688.77" cy="272.66" r="12.45"/>
			<circle class="st2" cx="688.77" cy="238.82" r="12.45"/>
			<g>
				<path class="st3" d="M715.99,271.33c-4.1,13.21-17.33,22.88-23.02,35.92c-4.24,9.71,4.51,16.88,7.32,22.04
					c12-15.96,29.02-38.89,31.57-58.58c2.89-22.3-11.21-40.03-29.41-54.25C716.27,233.16,722.26,251.17,715.99,271.33z"/>
				<path class="st3" d="M661.54,271.33c4.1,13.21,17.33,22.88,23.02,35.92c4.24,9.71-4.51,16.88-7.32,22.04
					c-12-15.96-29.02-38.89-31.57-58.58c-2.89-22.3,11.21-40.03,29.41-54.25C661.27,233.16,655.28,251.17,661.54,271.33z"/>
			</g>
			<g>
				<path class="st4" d="M627.51,327.48c-14.7,2.31-27.05,14.87-41.82,18.89c-10.99,2.99-17.26-7.43-22.31-11.23
					c18.85-10.28,45.92-24.81,67.28-24.45c24.19,0.41,40.85,18.18,53.14,39.77C668.17,333.15,649.94,323.96,627.51,327.48z"/>
				<circle class="st5" cx="627.16" cy="290.71" r="12.45"/>
				<path class="st4" d="M750.03,327.48c14.7,2.31,27.05,14.87,41.82,18.89c10.99,2.99,17.26-7.43,22.31-11.23
					c-18.85-10.28-45.92-24.81-67.28-24.45c-24.19,0.41-40.85,18.18-53.14,39.77C709.36,333.15,727.59,323.96,750.03,327.48z"/>
				<circle class="st5" cx="750.38" cy="290.71" r="12.45"/>
			</g>
		</g>
		<g>
			<g>
				<path class="st4" d="M134.32,261.68h-1.75c-1.43,0-2.14-0.39-2.14-1.17c0-0.7,0.5-1.06,1.49-1.06c0.51,0,1.03,0.05,1.54,0.15
					l0.38-2.31c-0.72-0.1-1.33-0.15-1.82-0.15c-1.51,0-2.66,0.36-3.45,1.07c-0.68,0.62-1.03,1.42-1.03,2.38
					c0,0.6,0.2,1.01,0.59,1.21c-0.38-0.08-0.96-0.12-1.73-0.12v2.31h7.93V261.68z"/>
				<path class="st4" d="M153.22,260.72c-2.5,0-5,0.4-7.48,1.21l0.38,2.91c2.26-0.74,4.46-1.12,6.6-1.12c3.04,0,5.27,0.77,6.68,2.31
					c1.38,1.52,2.07,3.88,2.07,7.1v0.38h-3.12v-0.71c0-1.89-0.43-3.38-1.28-4.46c-0.98-1.23-2.44-1.84-4.4-1.84
					c-1.83,0-3.28,0.49-4.36,1.46c-1.05,0.95-1.57,2.19-1.57,3.72c0,0.82,0.27,1.48,0.8,1.98c-0.41-0.1-0.89-0.15-1.45-0.15h-2.11
					h-0.45h-2.62v-18.56h-4.09v18.56h-6.45c-2.81,0-4.81-0.52-5.98-1.57c-1.12-0.97-1.67-2.58-1.67-4.82c0-1.86,0.35-3.56,1.06-5.09
					l-4.36,0.71c-0.53,1.47-0.8,3.08-0.8,4.85c0,2.98,0.84,5.2,2.52,6.68c1.85,1.64,4.79,2.46,8.82,2.46h13.58h0.45h21.38v-3.3
					C165.35,264.95,161.31,260.72,153.22,260.72z M155.01,273.62h-2.04c-1.94,0-2.91-0.81-2.91-2.44c0-1.42,0.77-2.13,2.32-2.13
					c1.75,0,2.62,1.23,2.62,3.68V273.62z"/>
				<path class="st4" d="M208.36,273.5H205h-0.47h-2.55c0.1-1.51,0.15-2.83,0.15-3.98c0-2.93-0.33-5.78-0.99-8.55l-3.98,0.54
					c0.6,2.67,0.9,5.43,0.9,8.28c0,1.32-0.08,2.55-0.23,3.71h-0.8c-1.45,0-2.41-0.19-2.89-0.56c-0.5-0.38-0.75-1.18-0.75-2.38v-7.75
					h-3.92v6.98c0,2.63-0.82,3.95-2.47,3.95c-0.87,0-1.46-0.32-1.75-0.95c-0.25-0.53-0.38-1.54-0.38-3.03v-5.71h-4.07v5.62
					c0,1.48-0.22,2.49-0.65,3.04c-0.4,0.52-1.12,0.78-2.14,0.78h-1.07h-0.47h-2.62v-18.56h-4.07v21.77h6.69h0.47h1.04
					c2.11,0,3.48-0.72,4.12-2.15c0.53,1.6,1.9,2.4,4.1,2.4c2.37,0,3.92-0.79,4.66-2.37c0.44,0.83,1.1,1.39,1.97,1.7
					c0.81,0.28,2.06,0.42,3.74,0.42h7.96H205h7.43v-21.77h-4.07V273.5z"/>
				<rect x="217.68" y="254.94" class="st4" width="4.07" height="21.77"/>
				<path class="st4" d="M245.59,261.8c-2.12,0-3.87,0.55-5.26,1.64c-1.29,1.02-2.12,2.37-2.49,4.07h-0.74
					c-2.37,0-4.05,0.69-5.03,2.06c-0.89,1.28-1.16,3.07-0.8,5.37l1.57,9.78h3.92l-1.6-10.09c-0.23-1.45-0.21-2.46,0.06-3.04
					c0.27-0.58,0.85-0.88,1.75-0.88h0.68c0.44,3.99,3.16,5.99,8.16,5.99h6.77v-7.81C252.57,264.17,250.24,261.8,245.59,261.8z
					 M248.62,273.5h-2.35c-3.09,0-4.63-1.44-4.63-4.33c0-1.23,0.32-2.22,0.96-2.98c0.66-0.78,1.56-1.18,2.7-1.18
					c2.21,0,3.32,1.46,3.32,4.39V273.5z"/>
				<path class="st4" d="M262.27,252.08h-1.81c-1.47,0-2.2-0.39-2.2-1.18c0-0.7,0.52-1.06,1.55-1.06c0.53,0,1.06,0.05,1.57,0.15
					l0.38-2.09c-0.43-0.12-1.04-0.18-1.82-0.18c-1.5,0-2.65,0.34-3.45,1.01c-0.68,0.57-1.03,1.28-1.03,2.11
					c0,0.65,0.24,1.11,0.71,1.36c-0.38-0.08-1-0.12-1.85-0.12v2.12h7.96V252.08z"/>
				<polygon class="st4" points="267.54,273.5 263.68,273.5 263.21,273.5 260.59,273.5 260.59,255.88 256.5,255.88 256.5,276.71 
					263.21,276.71 263.68,276.71 271.61,276.71 271.61,262.2 267.54,262.2 				"/>
				<path class="st4" d="M267.28,279.21c-0.58,0-1.09,0.21-1.51,0.62c-0.41,0.42-0.62,0.93-0.62,1.51c0,0.6,0.21,1.11,0.62,1.52
					c0.42,0.41,0.92,0.62,1.51,0.62c0.59,0,1.09-0.21,1.51-0.63c0.42-0.41,0.63-0.91,0.63-1.51c0-0.59-0.21-1.09-0.63-1.51
					C268.37,279.42,267.87,279.21,267.28,279.21z"/>
				<path class="st4" d="M290.18,259.86c0.57,0,1.06-0.21,1.45-0.62c0.39-0.41,0.59-0.9,0.59-1.48c0-0.59-0.2-1.09-0.59-1.49
					c-0.39-0.41-0.87-0.62-1.45-0.62c-0.56,0-1.05,0.21-1.45,0.62c-0.39,0.41-0.59,0.91-0.59,1.49c0,0.58,0.2,1.08,0.59,1.48
					C289.12,259.65,289.6,259.86,290.18,259.86z"/>
				<path class="st4" d="M285.05,259.86c0.58,0,1.08-0.21,1.48-0.62c0.39-0.41,0.59-0.9,0.59-1.48c0-0.59-0.2-1.09-0.59-1.49
					c-0.4-0.41-0.89-0.62-1.48-0.62c-0.56,0-1.05,0.21-1.45,0.62c-0.39,0.41-0.59,0.91-0.59,1.49c0,0.58,0.2,1.08,0.59,1.48
					C284,259.65,284.48,259.86,285.05,259.86z"/>
				<path class="st4" d="M299.66,279.24c-0.56,0-1.05,0.21-1.45,0.62c-0.39,0.41-0.59,0.9-0.59,1.48c0,0.59,0.2,1.09,0.59,1.49
					s0.87,0.6,1.45,0.6c0.58,0,1.08-0.21,1.48-0.62c0.39-0.4,0.59-0.89,0.59-1.48c0-0.58-0.2-1.08-0.59-1.49
					C300.73,279.45,300.24,279.24,299.66,279.24z"/>
				<path class="st4" d="M304.78,279.24c-0.56,0-1.05,0.21-1.45,0.62c-0.39,0.41-0.59,0.9-0.59,1.48c0,0.59,0.2,1.09,0.59,1.49
					c0.39,0.4,0.87,0.6,1.45,0.6c0.56,0,1.04-0.21,1.45-0.62c0.39-0.41,0.59-0.9,0.59-1.48c0-0.58-0.2-1.08-0.59-1.49
					C305.84,279.45,305.36,279.24,304.78,279.24z"/>
				<path class="st4" d="M329.37,260.72c-2.5,0-5,0.4-7.48,1.21l0.38,2.91c2.26-0.74,4.46-1.12,6.6-1.12c3.05,0,5.27,0.77,6.68,2.31
					c1.38,1.52,2.07,3.88,2.07,7.1v0.38h-3.12v-0.71c0-1.89-0.43-3.38-1.28-4.46c-0.98-1.23-2.44-1.84-4.4-1.84
					c-1.83,0-3.28,0.49-4.36,1.46c-1.05,0.95-1.57,2.19-1.57,3.72c0,0.82,0.27,1.48,0.8,1.98c-0.41-0.1-0.89-0.15-1.45-0.15h-2.1
					h-0.47h-2.62v-18.56h-4.07v18.56h-3.35h-0.48h-3.72v-11.3h-4.07v11.3h-3.87h-0.45h-2.56v-10.63c-1.88-0.71-4.03-1.07-6.45-1.07
					c-2.68,0-4.76,0.78-6.23,2.35c-1.31,1.41-1.96,3.21-1.96,5.4c0,4.77,2.76,7.16,8.28,7.16h8.92h0.45h11.67h0.48h10.04h0.47h21.36
					v-3.3C341.51,264.95,337.46,260.72,329.37,260.72z M290.52,273.5h-1.97c-3.1,0-4.64-1.44-4.64-4.33c0-1.23,0.33-2.22,0.98-2.98
					c0.66-0.78,1.56-1.18,2.7-1.18c1.18,0,2.16,0.19,2.94,0.56V273.5z M331.16,273.62h-2.04c-1.94,0-2.91-0.81-2.91-2.44
					c0-1.42,0.77-2.13,2.32-2.13c1.75,0,2.62,1.23,2.62,3.68V273.62z"/>
				<polygon class="st4" points="354.18,273.5 344.64,273.5 344.64,276.71 358.25,276.71 358.25,255.47 354.18,255.47 				"/>
				<path class="st4" d="M350.01,256.77h-1.88c-1.32,0-1.97-0.33-1.97-1c0-0.59,0.46-0.89,1.39-0.89c0.67,0,1.19,0.05,1.55,0.15
					l0.36-2.1c-0.43-0.12-1.04-0.18-1.82-0.18c-1.39,0-2.47,0.3-3.24,0.9c-0.69,0.55-1.04,1.26-1.04,2.11
					c0,0.51,0.15,0.89,0.45,1.12c-0.38-0.08-0.9-0.12-1.57-0.12v2.12h7.78V256.77z"/>
				<polygon class="st4" points="351.92,271.18 348.68,259.92 344.49,259.92 347.79,271.18 				"/>
				<rect x="363.16" y="254.94" class="st4" width="4.07" height="21.77"/>
				<path class="st4" d="M380.72,259.86c0.58,0,1.08-0.21,1.48-0.62c0.39-0.41,0.59-0.9,0.59-1.48c0-0.59-0.2-1.09-0.59-1.49
					c-0.4-0.41-0.89-0.62-1.48-0.62c-0.56,0-1.05,0.21-1.45,0.62c-0.39,0.41-0.59,0.91-0.59,1.49c0,0.58,0.2,1.08,0.59,1.48
					C379.66,259.65,380.14,259.86,380.72,259.86z"/>
				<path class="st4" d="M385.84,259.86c0.57,0,1.06-0.21,1.45-0.62c0.39-0.41,0.59-0.9,0.59-1.48c0-0.59-0.2-1.09-0.59-1.49
					c-0.39-0.41-0.87-0.62-1.45-0.62c-0.56,0-1.05,0.21-1.45,0.62c-0.39,0.41-0.59,0.91-0.59,1.49c0,0.58,0.2,1.08,0.59,1.48
					C384.79,259.65,385.27,259.86,385.84,259.86z"/>
				<path class="st4" d="M400.45,279.24c-0.56,0-1.05,0.21-1.45,0.62c-0.39,0.41-0.59,0.9-0.59,1.48c0,0.59,0.2,1.09,0.59,1.49
					s0.87,0.6,1.45,0.6c0.56,0,1.04-0.21,1.45-0.62c0.39-0.41,0.59-0.9,0.59-1.48c0-0.58-0.2-1.08-0.59-1.49
					C401.5,279.45,401.02,279.24,400.45,279.24z"/>
				<path class="st4" d="M395.32,279.24c-0.56,0-1.05,0.21-1.45,0.62c-0.39,0.41-0.59,0.9-0.59,1.48c0,0.59,0.2,1.09,0.59,1.49
					c0.39,0.4,0.87,0.6,1.45,0.6c0.58,0,1.08-0.21,1.48-0.62c0.39-0.4,0.59-0.89,0.59-1.48c0-0.58-0.2-1.08-0.59-1.49
					C396.4,279.45,395.9,279.24,395.32,279.24z"/>
				<path class="st4" d="M431.3,259.6c0.58,0,1.09-0.21,1.51-0.62c0.41-0.42,0.62-0.93,0.62-1.51s-0.21-1.09-0.62-1.51
					c-0.42-0.41-0.93-0.62-1.51-0.62c-0.58,0-1.09,0.21-1.51,0.62c-0.41,0.42-0.62,0.93-0.62,1.51c0,0.6,0.21,1.11,0.62,1.52
					C430.21,259.4,430.71,259.6,431.3,259.6z"/>
				<path class="st4" d="M439.11,259.86c0.58,0,1.08-0.21,1.48-0.62c0.39-0.41,0.59-0.9,0.59-1.48c0-0.59-0.2-1.09-0.59-1.49
					c-0.4-0.41-0.89-0.62-1.48-0.62c-0.56,0-1.05,0.21-1.45,0.62c-0.39,0.41-0.59,0.91-0.59,1.49c0,0.58,0.2,1.08,0.59,1.48
					C438.06,259.65,438.54,259.86,439.11,259.86z"/>
				<path class="st4" d="M444.24,259.86c0.56,0,1.04-0.21,1.45-0.62c0.39-0.41,0.59-0.9,0.59-1.48c0-0.59-0.2-1.09-0.59-1.49
					c-0.39-0.41-0.87-0.62-1.45-0.62c-0.56,0-1.05,0.21-1.45,0.62c-0.39,0.41-0.59,0.91-0.59,1.49c0,0.58,0.2,1.08,0.59,1.48
					C443.18,259.65,443.66,259.86,444.24,259.86z"/>
				<path class="st4" d="M450.4,273.5h-3.36h-0.47h-2.28v-11.3h-4.07v11.3h-3.86h-0.47h-2.56v-11.3h-4.07v11.3h-3.84h-0.48h-2.11
					v-4.6c0-4.73-2.33-7.1-6.98-7.1c-2.55,0-4.56,0.76-6.03,2.28c-1.33,1.39-1.99,3.13-1.99,5.22c0,1.56-0.32,2.66-0.95,3.32
					c-0.57,0.59-1.46,0.89-2.67,0.89h-3.12v-11.3h-4.07v11.3h-3.87h-0.45h-2.56v-10.63c-1.88-0.71-4.03-1.07-6.45-1.07
					c-2.68,0-4.76,0.78-6.23,2.35c-1.31,1.41-1.96,3.21-1.96,5.4c0,4.77,2.76,7.16,8.28,7.16h8.92h0.45h11.06h0.47h0.62v-0.02
					c2.27-0.12,3.71-0.91,4.28-2.39c1.29,1.61,3.59,2.41,6.92,2.41h8.44h0.48h10.48h0.47h10.21h0.47h7.43v-21.77h-4.07V273.5z
					 M386.19,273.5h-1.97c-3.1,0-4.64-1.44-4.64-4.33c0-1.23,0.33-2.22,0.98-2.98c0.66-0.78,1.56-1.18,2.7-1.18
					c1.18,0,2.16,0.19,2.94,0.56V273.5z M418.85,273.5h-2.35c-3.09,0-4.63-1.44-4.63-4.33c0-1.23,0.32-2.22,0.96-2.98
					c0.67-0.78,1.58-1.18,2.71-1.18c2.2,0,3.3,1.46,3.3,4.39V273.5z"/>
				<rect x="459.41" y="254.94" class="st4" width="4.07" height="21.77"/>
				<path class="st4" d="M482.09,259.86c0.57,0,1.06-0.21,1.45-0.62c0.39-0.41,0.59-0.9,0.59-1.48c0-0.59-0.2-1.09-0.59-1.49
					c-0.39-0.41-0.87-0.62-1.45-0.62c-0.56,0-1.05,0.21-1.45,0.62c-0.39,0.41-0.59,0.91-0.59,1.49c0,0.58,0.2,1.08,0.59,1.48
					C481.04,259.65,481.52,259.86,482.09,259.86z"/>
				<path class="st4" d="M476.97,259.86c0.58,0,1.07-0.21,1.48-0.62c0.39-0.41,0.59-0.9,0.59-1.48c0-0.59-0.2-1.09-0.59-1.49
					c-0.4-0.41-0.89-0.62-1.48-0.62c-0.56,0-1.05,0.21-1.45,0.62c-0.39,0.41-0.59,0.91-0.59,1.49c0,0.58,0.2,1.08,0.59,1.48
					C475.91,259.65,476.39,259.86,476.97,259.86z"/>
				<path class="st4" d="M496.7,279.24c-0.56,0-1.05,0.21-1.45,0.62c-0.39,0.41-0.59,0.9-0.59,1.48c0,0.59,0.2,1.09,0.59,1.49
					c0.39,0.4,0.87,0.6,1.45,0.6c0.56,0,1.05-0.21,1.45-0.62c0.39-0.41,0.59-0.9,0.59-1.48c0-0.58-0.2-1.08-0.59-1.49
					C497.75,279.45,497.27,279.24,496.7,279.24z"/>
				<path class="st4" d="M491.57,279.24c-0.56,0-1.05,0.21-1.45,0.62c-0.39,0.41-0.59,0.9-0.59,1.48c0,0.59,0.2,1.09,0.59,1.49
					s0.87,0.6,1.45,0.6c0.58,0,1.08-0.21,1.48-0.62c0.39-0.4,0.59-0.89,0.59-1.48c0-0.58-0.2-1.08-0.59-1.49
					C492.65,279.45,492.16,279.24,491.57,279.24z"/>
				<path class="st4" d="M554.51,264.29c-1.56-1.52-4.04-2.28-7.45-2.28c-1.19,0-2.5,0.1-3.95,0.29v3.18
					c1.22-0.17,2.4-0.26,3.54-0.26c2.17,0,3.74,0.5,4.7,1.49c0.9,0.94,1.36,2.42,1.36,4.43c0,0.74-0.05,1.53-0.15,2.35h-11.47h-0.48
					h-2.11v-4.6c0-4.73-2.33-7.1-6.98-7.1c-2.55,0-4.56,0.76-6.03,2.28c-1.33,1.39-1.99,3.13-1.99,5.22c0,1.56-0.32,2.66-0.95,3.32
					c-0.57,0.59-1.46,0.89-2.67,0.89h-0.96c-1.19,0-2.33-0.26-3.44-0.8c2.1-1.76,3.15-3.73,3.15-5.92c0-1.46-0.51-2.64-1.52-3.54
					c-1.16-1.02-2.82-1.52-4.99-1.52c-2.78,0-5.76,1.14-8.92,3.42l-0.33,2.91c1.58,0.43,3.74,1.93,6.48,4.51
					c-1.95,0.63-4.35,0.95-7.19,0.95h-0.6h-0.48h-3.72v-11.3h-4.07v11.3h-3.87h-0.45h-2.56v-10.63c-1.88-0.71-4.03-1.07-6.45-1.07
					c-2.68,0-4.76,0.78-6.22,2.35c-1.31,1.41-1.96,3.21-1.96,5.4c0,4.77,2.76,7.16,8.27,7.16h8.92h0.45h11.67h0.48h0.35
					c3.94,0,7.34-0.64,10.19-1.91c1.92,1.28,4.04,1.91,6.36,1.91h1.43h0.47h0.6v-0.02c2.28-0.12,3.72-0.91,4.3-2.39
					c1.29,1.61,3.59,2.41,6.92,2.41h8.44h0.48h15.13c0.35-2.1,0.53-4,0.53-5.71C556.75,267.97,556,265.74,554.51,264.29z
					 M482.44,273.5h-1.97c-3.1,0-4.64-1.44-4.64-4.33c0-1.23,0.33-2.22,0.98-2.98c0.66-0.78,1.56-1.18,2.7-1.18
					c1.18,0,2.15,0.19,2.94,0.56V273.5z M512.68,270.82c-3.01-2.52-4.91-3.94-5.71-4.27c1.85-1.24,3.41-1.85,4.69-1.85
					c0.96,0,1.69,0.25,2.22,0.76c0.48,0.46,0.72,1.07,0.72,1.84C514.59,268.64,513.95,269.81,512.68,270.82z M534.52,273.5h-2.35
					c-3.09,0-4.63-1.44-4.63-4.33c0-1.23,0.32-2.22,0.96-2.98c0.67-0.78,1.58-1.18,2.71-1.18c2.2,0,3.3,1.46,3.3,4.39V273.5z"/>
				<path class="st4" d="M547.92,279.21c-0.58,0-1.08,0.21-1.49,0.62c-0.42,0.42-0.63,0.93-0.63,1.51c0,0.6,0.21,1.11,0.63,1.52
					c0.41,0.41,0.91,0.62,1.49,0.62c0.59,0,1.09-0.21,1.51-0.63c0.42-0.41,0.63-0.91,0.63-1.51c0-0.59-0.21-1.09-0.63-1.51
					C549.01,279.42,548.51,279.21,547.92,279.21z"/>
			</g>
			<g>
				<g>
					<path class="st4" d="M305.6,299.74c0.37,0,0.68-0.13,0.94-0.39c0.25-0.25,0.38-0.56,0.38-0.93s-0.13-0.67-0.38-0.93
						c-0.26-0.25-0.57-0.37-0.94-0.37s-0.68,0.13-0.94,0.38c-0.25,0.25-0.38,0.56-0.38,0.92c0,0.37,0.13,0.69,0.38,0.94
						S305.23,299.74,305.6,299.74z"/>
					<path class="st4" d="M314.87,313.9c-0.34,0-0.64,0.13-0.89,0.39c-0.25,0.26-0.37,0.56-0.37,0.91c0,0.37,0.12,0.68,0.37,0.94
						c0.25,0.25,0.54,0.38,0.89,0.38c0.37,0,0.67-0.13,0.92-0.38c0.24-0.25,0.36-0.57,0.36-0.94c0-0.36-0.12-0.66-0.36-0.92
						C315.54,314.03,315.24,313.9,314.87,313.9z"/>
					<path class="st4" d="M317.26,310.11h-3.89h-0.32h-1.54c0.07-0.65,0.11-1.35,0.11-2.1c0-2.12-0.51-3.68-1.52-4.69
						c-1.06-1.06-2.76-1.59-5.1-1.59c-0.86,0-1.75,0.07-2.66,0.2v1.86c0.71-0.12,1.52-0.18,2.43-0.18c1.63,0,2.8,0.38,3.5,1.14
						c0.66,0.71,0.99,1.84,0.99,3.4c0,0.67-0.04,1.32-0.13,1.97h-1.64c-2.33,0-4.09,0.44-5.26,1.32c-1.04,0.78-1.56,1.87-1.56,3.26
						c0,1.29,0.5,2.3,1.49,3.04c1.05,0.78,2.56,1.17,4.53,1.17c1.41,0,2.81-0.15,4.22-0.45l-0.18-1.83
						c-1.34,0.27-2.61,0.41-3.8,0.41c-1.29,0-2.28-0.24-2.96-0.73c-0.63-0.44-0.95-1.03-0.95-1.77c0-1.69,1.45-2.53,4.36-2.53h5.66
						h0.32h6.27v-10.15h-2.38V310.11z"/>
					<path class="st4" d="M318.24,313.9c-0.36,0-0.66,0.13-0.91,0.39c-0.25,0.25-0.37,0.55-0.37,0.91c0,0.37,0.12,0.68,0.37,0.94
						c0.25,0.25,0.55,0.38,0.91,0.38c0.35,0,0.65-0.13,0.9-0.38c0.25-0.26,0.37-0.57,0.37-0.94c0-0.36-0.12-0.66-0.37-0.92
						S318.59,313.9,318.24,313.9z"/>
					<path class="st4" d="M325.97,312.25c0,1.25-0.23,2.13-0.7,2.67c-0.41,0.48-1.06,0.72-1.94,0.72c-0.7,0-1.36-0.1-1.96-0.31
						l-0.24,1.91c0.65,0.18,1.35,0.27,2.08,0.27c3.42,0,5.13-1.81,5.13-5.42v-10.26h-2.37V312.25z"/>
					<path class="st4" d="M341.96,300c0.36,0,0.66-0.13,0.91-0.38s0.37-0.56,0.37-0.92c0-0.35-0.12-0.65-0.37-0.91
						s-0.55-0.38-0.91-0.38c-0.35,0-0.65,0.13-0.9,0.38s-0.37,0.56-0.37,0.91c0,0.37,0.12,0.68,0.37,0.93S341.61,300,341.96,300z"/>
					<path class="st4" d="M338.6,300c0.37,0,0.67-0.13,0.91-0.38c0.25-0.25,0.37-0.55,0.37-0.92c0-0.36-0.12-0.66-0.37-0.91
						c-0.24-0.25-0.54-0.38-0.91-0.38c-0.34,0-0.64,0.13-0.89,0.38c-0.25,0.25-0.37,0.56-0.37,0.91c0,0.37,0.12,0.67,0.37,0.93
						C337.95,299.87,338.25,300,338.6,300z"/>
					<path class="st4" d="M346.37,313.9c-0.37,0-0.67,0.13-0.93,0.39c-0.26,0.25-0.39,0.56-0.39,0.93c0,0.36,0.13,0.68,0.39,0.94
						c0.25,0.25,0.56,0.38,0.93,0.38s0.68-0.13,0.94-0.38c0.25-0.26,0.38-0.57,0.38-0.94c0-0.37-0.13-0.67-0.38-0.93
						C347.05,314.03,346.74,313.9,346.37,313.9z"/>
					<polygon class="st4" points="346.7,310.11 343.94,310.11 343.61,310.11 341.84,310.11 341.84,301.83 339.47,301.83 
						339.47,310.11 336.7,310.11 336.38,310.11 334.42,310.11 334.42,296.76 332.04,296.76 332.04,311.98 336.38,311.98 
						336.7,311.98 343.61,311.98 343.94,311.98 349.07,311.98 349.07,301.83 346.7,301.83 					"/>
					<path class="st4" d="M434.75,306.46c0-3.25-1.58-4.88-4.75-4.88c-1.73,0-3.1,0.53-4.1,1.59c-0.92,0.97-1.38,2.2-1.38,3.68
						c0,1.62,0.47,2.75,1.42,3.38c-0.32-0.08-0.73-0.13-1.23-0.13h-1.14h-0.35h-1.65v-3.65c0-3.25-1.59-4.88-4.76-4.88
						c-1.48,0-2.7,0.4-3.66,1.2c-0.89,0.74-1.45,1.72-1.68,2.94h-0.58c-1.57,0-2.68,0.46-3.33,1.39c-0.6,0.86-0.78,2.06-0.54,3.62
						l1.11,6.86h2.29l-1.13-7.03c-0.17-1.06-0.13-1.82,0.11-2.28c0.23-0.46,0.7-0.68,1.41-0.68h0.56c0.23,2.92,2.12,4.39,5.66,4.39
						h6.19h0.35h11.19V306.46z M419.24,310.11h-1.92c-2.42,0-3.63-1.12-3.63-3.37c0-0.98,0.26-1.77,0.78-2.36
						c0.53-0.61,1.25-0.92,2.16-0.92c1.74,0,2.6,1.12,2.6,3.37V310.11z M432.43,310.11h-1.92c-2.42,0-3.63-1.12-3.63-3.37
						c0-0.98,0.26-1.77,0.78-2.36c0.53-0.61,1.26-0.92,2.16-0.92c1.74,0,2.6,1.12,2.6,3.37V310.11z"/>
					<path class="st4" d="M431.44,300c0.36,0,0.66-0.13,0.91-0.38s0.37-0.56,0.37-0.92c0-0.35-0.12-0.65-0.37-0.91
						s-0.55-0.38-0.91-0.38c-0.35,0-0.65,0.13-0.9,0.38c-0.25,0.25-0.38,0.56-0.38,0.91c0,0.37,0.13,0.68,0.38,0.93
						C430.78,299.87,431.08,300,431.44,300z"/>
					<path class="st4" d="M428.08,300c0.36,0,0.66-0.13,0.91-0.38c0.25-0.25,0.37-0.55,0.37-0.92c0-0.36-0.12-0.66-0.37-0.91
						c-0.25-0.25-0.55-0.38-0.91-0.38c-0.34,0-0.64,0.13-0.89,0.38s-0.37,0.56-0.37,0.91c0,0.37,0.12,0.67,0.37,0.93
						C427.43,299.87,427.73,300,428.08,300z"/>
					<path class="st4" d="M446.28,313.9c-0.37,0-0.67,0.13-0.93,0.39c-0.26,0.25-0.39,0.56-0.39,0.93c0,0.36,0.13,0.68,0.39,0.94
						c0.25,0.25,0.56,0.38,0.93,0.38s0.68-0.13,0.94-0.38c0.25-0.26,0.38-0.57,0.38-0.94c0-0.37-0.13-0.67-0.38-0.93
						C446.96,314.03,446.65,313.9,446.28,313.9z"/>
					<path class="st4" d="M446.61,310.11h-2.75h-0.34h-1.93v-8.28h-2.37v10.42c0,1.25-0.23,2.13-0.7,2.67
						c-0.41,0.48-1.06,0.72-1.94,0.72c-0.7,0-1.36-0.1-1.96-0.31l-0.24,1.91c0.65,0.18,1.35,0.27,2.08,0.27
						c3.42,0,5.13-1.81,5.13-5.42v-0.11h1.93h0.34h5.12v-10.15h-2.37V310.11z"/>
					<path class="st4" d="M459.53,300c0.37,0,0.67-0.13,0.92-0.38c0.24-0.25,0.36-0.55,0.36-0.92c0-0.36-0.12-0.66-0.36-0.91
						c-0.25-0.25-0.55-0.38-0.92-0.38c-0.34,0-0.64,0.13-0.89,0.38s-0.37,0.56-0.37,0.91c0,0.37,0.12,0.67,0.37,0.93
						C458.89,299.87,459.18,300,459.53,300z"/>
					<path class="st4" d="M462.9,300c0.35,0,0.65-0.13,0.9-0.38s0.37-0.56,0.37-0.92c0-0.35-0.12-0.65-0.37-0.91
						s-0.55-0.38-0.9-0.38c-0.36,0-0.66,0.13-0.91,0.38s-0.37,0.56-0.37,0.91c0,0.37,0.12,0.68,0.37,0.93S462.54,300,462.9,300z"/>
					<path class="st4" d="M480.08,313.9c-0.37,0-0.67,0.13-0.93,0.39c-0.26,0.25-0.39,0.56-0.39,0.93c0,0.36,0.13,0.68,0.39,0.94
						c0.25,0.25,0.56,0.38,0.93,0.38c0.37,0,0.69-0.13,0.94-0.38c0.25-0.26,0.38-0.57,0.38-0.94c0-0.37-0.13-0.67-0.38-0.93
						C480.77,314.03,480.46,313.9,480.08,313.9z"/>
					<path class="st4" d="M513.6,301.58c-1.73,0-3.1,0.53-4.1,1.59c-0.92,0.97-1.38,2.2-1.38,3.68c0,1.62,0.47,2.75,1.42,3.38
						c-0.32-0.08-0.73-0.13-1.23-0.13h-1.15h-0.34h-1.93c0.08-1.02,0.13-2.02,0.13-3.01c0-2.14-0.25-4.16-0.74-6.06l-2.31,0.39
						c0.45,1.81,0.67,3.76,0.67,5.85c0,0.82-0.05,1.76-0.16,2.83h-0.64c-1.14,0-1.89-0.14-2.27-0.42c-0.42-0.31-0.63-0.95-0.63-1.93
						v-5.49h-2.27v4.84c0,2.12-0.67,3.17-2,3.17c-0.72,0-1.2-0.27-1.42-0.8c-0.18-0.41-0.26-1.2-0.26-2.39v-3.95h-2.37v4.15
						c0,1.08-0.16,1.82-0.48,2.24c-0.31,0.39-0.85,0.59-1.61,0.59h-0.65h-0.34h-1.52c0.07-0.65,0.11-1.35,0.11-2.1
						c0-2.12-0.51-3.68-1.52-4.69c-1.07-1.06-2.77-1.59-5.11-1.59c-0.86,0-1.75,0.07-2.66,0.2v1.86c0.71-0.12,1.53-0.18,2.45-0.18
						c1.62,0,2.79,0.38,3.5,1.14c0.66,0.71,0.99,1.84,0.99,3.4c0,0.67-0.05,1.32-0.14,1.97h-8.32h-0.34h-1.93v-13.35h-2.38v13.35
						h-2.54h-0.33h-1.94v-7.77c-1.31-0.51-2.78-0.76-4.43-0.76c-1.8,0-3.2,0.54-4.2,1.62c-0.9,0.98-1.35,2.23-1.35,3.75
						c0,3.35,1.91,5.03,5.73,5.03h6.19h0.33h6.85h0.34h12.22h0.34h0.63c1.53,0,2.49-0.54,2.9-1.62c0.35,1.18,1.29,1.77,2.83,1.77
						c1.67,0,2.75-0.59,3.26-1.77c0.31,0.63,0.78,1.06,1.41,1.3c0.6,0.22,1.55,0.33,2.85,0.33h5.08h0.34h11.2v-5.52
						C518.35,303.2,516.77,301.58,513.6,301.58z M463.54,310.11h-1.67c-2.42,0-3.63-1.13-3.63-3.39c0-0.97,0.26-1.75,0.78-2.35
						c0.53-0.6,1.25-0.91,2.16-0.91c0.93,0,1.72,0.15,2.35,0.45V310.11z M516.04,310.11h-1.92c-2.42,0-3.63-1.12-3.63-3.37
						c0-0.98,0.26-1.77,0.78-2.36c0.53-0.61,1.26-0.92,2.16-0.92c1.74,0,2.6,1.12,2.6,3.37V310.11z"/>
				</g>
				<g>
					<path class="st4" d="M364.76,300.07c-0.09-0.03-0.25-0.06-0.5-0.09c-0.24-0.03-0.56-0.04-0.95-0.04c-0.76,0-1.42,0.07-1.96,0.2
						c-0.55,0.14-1,0.32-1.35,0.56c-0.35,0.24-0.61,0.52-0.78,0.83c-0.17,0.32-0.25,0.66-0.25,1.02c0,0.46,0.15,0.84,0.46,1.14
						c0.31,0.3,0.7,0.54,1.19,0.72c0.48,0.18,1.01,0.31,1.6,0.4c0.58,0.09,1.15,0.15,1.69,0.19v1.62c-1.48,0.3-2.64,0.77-3.48,1.4
						c-0.84,0.63-1.25,1.36-1.25,2.18c0,0.27,0.05,0.53,0.16,0.78c0.11,0.24,0.28,0.46,0.53,0.65c0.24,0.19,0.56,0.34,0.95,0.45
						c0.39,0.12,0.86,0.17,1.42,0.17c0.81,0,1.47-0.06,2-0.17c0.53-0.12,0.88-0.21,1.07-0.28l0.24,1.64
						c-0.09,0.03-0.24,0.07-0.47,0.13c-0.23,0.06-0.5,0.11-0.8,0.16c-0.3,0.05-0.63,0.09-0.99,0.13c-0.36,0.04-0.71,0.05-1.06,0.05
						c-0.99,0-1.81-0.11-2.46-0.34s-1.16-0.51-1.53-0.85c-0.37-0.35-0.63-0.72-0.78-1.13c-0.14-0.41-0.22-0.8-0.22-1.18
						c0-1.07,0.39-1.98,1.16-2.74c0.77-0.76,1.87-1.33,3.29-1.71c-1.45-0.19-2.58-0.54-3.39-1.07c-0.81-0.53-1.21-1.34-1.21-2.45
						c0-0.56,0.13-1.09,0.4-1.6c0.27-0.5,0.66-0.95,1.18-1.33c0.52-0.38,1.16-0.68,1.93-0.91c0.77-0.22,1.66-0.33,2.67-0.33
						c0.45,0,0.81,0.02,1.1,0.05c0.29,0.04,0.48,0.07,0.56,0.1L364.76,300.07z"/>
					<path class="st4" d="M374.91,313.61h-1.88l-0.65-14.96h1.88L374.91,313.61z"/>
					<path class="st4" d="M385.94,313.12c-0.81,0-1.53-0.1-2.16-0.3c-0.63-0.2-1.17-0.53-1.61-0.98c-0.44-0.45-0.78-1.03-1.02-1.74
						c-0.24-0.7-0.36-1.57-0.36-2.59c0-0.95,0.1-1.92,0.3-2.9c0.2-0.99,0.51-1.88,0.93-2.69s0.95-1.47,1.59-1.99
						c0.64-0.52,1.41-0.78,2.3-0.78c0.91,0,1.69,0.26,2.35,0.78c0.66,0.52,1.2,1.18,1.63,1.99s0.74,1.7,0.94,2.69
						c0.2,0.99,0.3,1.95,0.3,2.9c0,0.98-0.12,1.82-0.36,2.54s-0.58,1.3-1.02,1.75c-0.44,0.45-0.98,0.79-1.63,1
						C387.5,313.01,386.76,313.12,385.94,313.12z M385.94,311.39c1.12,0,1.95-0.31,2.47-0.93c0.53-0.62,0.79-1.6,0.79-2.96
						c0-0.7-0.07-1.44-0.2-2.21s-0.34-1.48-0.6-2.13c-0.27-0.65-0.6-1.18-1.02-1.61c-0.41-0.42-0.88-0.64-1.41-0.64
						c-0.55,0-1.02,0.21-1.41,0.64c-0.4,0.42-0.73,0.96-1,1.61c-0.27,0.65-0.47,1.36-0.6,2.13c-0.13,0.77-0.19,1.51-0.19,2.21
						c0,1.37,0.26,2.36,0.78,2.97C384.04,311.08,384.85,311.39,385.94,311.39z"/>
					<path class="st4" d="M393.91,298.65h8.85v1.75h-6.89l0.58,13.21h-1.88L393.91,298.65z"/>
				</g>
				<g>
					<path class="st4" d="M157.01,313.53h9.28v1.68h-9.28V313.53z"/>
					<path class="st4" d="M177.89,304.48c0.85,0,1.57,0.13,2.17,0.39c0.6,0.26,1.09,0.61,1.47,1.07c0.38,0.45,0.66,1,0.83,1.63
						c0.17,0.63,0.26,1.32,0.26,2.07v5.05c-0.4,0.13-1.28,0.25-2.63,0.36c-1.35,0.11-3.25,0.16-5.68,0.16h-8.55v-1.68h3.22
						c-0.16-0.13-0.32-0.3-0.47-0.52c-0.16-0.22-0.31-0.46-0.44-0.75c-0.14-0.28-0.25-0.59-0.33-0.93c-0.09-0.34-0.13-0.7-0.13-1.09
						c0-0.66,0.11-1.26,0.35-1.78c0.23-0.53,0.54-0.97,0.92-1.34c0.38-0.37,0.82-0.65,1.32-0.84c0.5-0.19,1.01-0.29,1.54-0.29
						c0.26,0,0.54,0.03,0.84,0.08c0.3,0.05,0.61,0.13,0.91,0.25C174.66,305.09,176.13,304.48,177.89,304.48z M174.3,313.53v-2.72
						c0-0.95-0.21-1.71-0.64-2.27c-0.42-0.56-1.03-0.84-1.82-0.84c-0.39,0-0.73,0.07-1.02,0.22c-0.29,0.14-0.53,0.33-0.71,0.57
						c-0.19,0.24-0.33,0.51-0.42,0.82c-0.09,0.31-0.14,0.64-0.14,0.98c0,0.56,0.07,1.05,0.21,1.46c0.14,0.41,0.32,0.74,0.55,1
						c0.23,0.26,0.5,0.45,0.82,0.58c0.32,0.13,0.65,0.19,1.02,0.19H174.3z M176.18,313.53c0.53,0,1.05-0.01,1.55-0.03
						c0.5-0.02,0.96-0.04,1.36-0.06c0.4-0.02,0.75-0.05,1.04-0.09c0.29-0.04,0.49-0.07,0.6-0.1v-3.46c0-0.55-0.05-1.04-0.16-1.49
						c-0.11-0.45-0.28-0.82-0.53-1.13c-0.24-0.31-0.56-0.55-0.95-0.71c-0.39-0.17-0.87-0.25-1.45-0.25c-0.5,0-0.99,0.1-1.47,0.3
						c-0.47,0.2-0.88,0.45-1.21,0.73c0.35,0.36,0.63,0.81,0.86,1.35c0.23,0.54,0.35,1.2,0.35,1.98V313.53z"/>
					<path class="st4" d="M191.58,315.21h-1.88l-0.65-14.96h1.88L191.58,315.21z"/>
					<path class="st4" d="M206.13,301.67c-0.09-0.03-0.25-0.06-0.5-0.09c-0.24-0.03-0.56-0.04-0.95-0.04c-0.76,0-1.42,0.07-1.96,0.2
						c-0.55,0.14-1,0.32-1.35,0.56c-0.35,0.24-0.61,0.52-0.78,0.83c-0.17,0.32-0.25,0.66-0.25,1.02c0,0.46,0.15,0.84,0.46,1.14
						c0.31,0.3,0.71,0.54,1.19,0.72c0.48,0.18,1.02,0.31,1.6,0.4c0.58,0.09,1.15,0.15,1.69,0.19v1.62c-1.48,0.3-2.64,0.77-3.48,1.4
						c-0.83,0.63-1.25,1.36-1.25,2.18c0,0.27,0.05,0.53,0.16,0.78c0.11,0.24,0.28,0.46,0.53,0.65c0.24,0.19,0.56,0.34,0.95,0.45
						c0.39,0.12,0.86,0.17,1.43,0.17c0.81,0,1.47-0.06,2-0.17c0.53-0.12,0.88-0.21,1.07-0.28l0.24,1.64
						c-0.09,0.03-0.24,0.07-0.47,0.13c-0.23,0.06-0.5,0.11-0.8,0.16c-0.3,0.05-0.63,0.09-0.99,0.13c-0.36,0.04-0.71,0.05-1.06,0.05
						c-0.99,0-1.81-0.11-2.46-0.34c-0.65-0.22-1.16-0.51-1.53-0.85c-0.37-0.35-0.63-0.72-0.78-1.13c-0.14-0.41-0.22-0.8-0.22-1.18
						c0-1.07,0.38-1.98,1.15-2.74s1.87-1.33,3.29-1.71c-1.45-0.19-2.58-0.54-3.39-1.07c-0.81-0.53-1.21-1.34-1.21-2.45
						c0-0.56,0.13-1.09,0.4-1.6c0.27-0.5,0.66-0.95,1.18-1.33s1.16-0.68,1.93-0.91c0.77-0.22,1.66-0.33,2.67-0.33
						c0.45,0,0.81,0.02,1.1,0.05c0.29,0.04,0.47,0.07,0.56,0.1L206.13,301.67z"/>
					<path class="st4" d="M218.48,301.67c-0.09-0.03-0.25-0.06-0.5-0.09c-0.24-0.03-0.56-0.04-0.95-0.04c-0.76,0-1.42,0.07-1.96,0.2
						c-0.55,0.14-1,0.32-1.35,0.56c-0.35,0.24-0.61,0.52-0.78,0.83c-0.17,0.32-0.25,0.66-0.25,1.02c0,0.46,0.15,0.84,0.46,1.14
						c0.31,0.3,0.71,0.54,1.19,0.72c0.48,0.18,1.02,0.31,1.6,0.4c0.58,0.09,1.15,0.15,1.69,0.19v1.62c-1.48,0.3-2.64,0.77-3.48,1.4
						c-0.83,0.63-1.25,1.36-1.25,2.18c0,0.27,0.05,0.53,0.16,0.78c0.11,0.24,0.28,0.46,0.53,0.65c0.24,0.19,0.56,0.34,0.95,0.45
						c0.39,0.12,0.86,0.17,1.43,0.17c0.81,0,1.47-0.06,2-0.17c0.53-0.12,0.88-0.21,1.07-0.28l0.24,1.64
						c-0.09,0.03-0.24,0.07-0.47,0.13c-0.23,0.06-0.5,0.11-0.8,0.16c-0.3,0.05-0.63,0.09-0.99,0.13c-0.36,0.04-0.71,0.05-1.06,0.05
						c-0.99,0-1.81-0.11-2.46-0.34c-0.65-0.22-1.16-0.51-1.53-0.85c-0.37-0.35-0.63-0.72-0.78-1.13c-0.14-0.41-0.22-0.8-0.22-1.18
						c0-1.07,0.38-1.98,1.15-2.74s1.87-1.33,3.29-1.71c-1.45-0.19-2.58-0.54-3.39-1.07c-0.81-0.53-1.21-1.34-1.21-2.45
						c0-0.56,0.13-1.09,0.4-1.6c0.27-0.5,0.66-0.95,1.18-1.33s1.16-0.68,1.93-0.91c0.77-0.22,1.66-0.33,2.67-0.33
						c0.45,0,0.81,0.02,1.1,0.05c0.29,0.04,0.47,0.07,0.56,0.1L218.48,301.67z"/>
					<path class="st4" d="M224.42,304.95c0.03,0.01,0.16,0.04,0.4,0.08c0.24,0.04,0.52,0.05,0.85,0.05c0.27,0,0.54-0.02,0.8-0.05
						c0.26-0.04,0.41-0.06,0.45-0.08v-4.56l1.58-0.32v4.88c0.04,0.01,0.18,0.04,0.42,0.08c0.24,0.04,0.52,0.05,0.83,0.05
						c0.27,0,0.55-0.02,0.82-0.05c0.27-0.04,0.42-0.06,0.45-0.08v-4.56l1.58-0.32v6.11c-0.09,0.03-0.36,0.1-0.81,0.21
						c-0.45,0.11-1.03,0.16-1.72,0.16c-0.56,0-1.04-0.04-1.42-0.11c-0.39-0.07-0.71-0.14-0.95-0.22c-0.2,0.07-0.46,0.14-0.77,0.21
						c-0.31,0.06-0.67,0.1-1.07,0.1c-0.37,0-0.68-0.02-0.92-0.05c-0.24-0.04-0.39-0.07-0.46-0.1l0.41,8.83h-1.81l-0.65-14.81
						l1.77-0.32L224.42,304.95z"/>
					<path class="st4" d="M235.06,319.2h-2.05l7.32-20.9h2.01L235.06,319.2z"/>
					<path class="st4" d="M251.41,308.97c-0.92,0-1.68-0.14-2.29-0.43c-0.6-0.29-1.08-0.65-1.44-1.1c-0.35-0.45-0.6-0.94-0.73-1.47
						c-0.14-0.53-0.2-1.04-0.2-1.53c0-0.84,0.12-1.54,0.37-2.13c0.24-0.58,0.58-1.05,0.99-1.4c0.42-0.35,0.89-0.61,1.43-0.77
						c0.53-0.16,1.09-0.24,1.68-0.24c1.27,0,2.29,0.35,3.07,1.06c0.78,0.71,1.2,1.84,1.27,3.39l0.43,10.86h-1.79l-0.26-6.54
						c-0.3,0.09-0.67,0.16-1.1,0.22C252.4,308.94,251.92,308.97,251.41,308.97z M251.6,307.39c0.62,0,1.11-0.04,1.47-0.12
						c0.36-0.08,0.61-0.15,0.76-0.2l-0.13-2.74c-0.04-0.89-0.26-1.59-0.65-2.09c-0.39-0.5-1-0.76-1.84-0.76
						c-0.84,0-1.48,0.25-1.92,0.76c-0.45,0.5-0.67,1.2-0.67,2.09c0,1.14,0.24,1.93,0.71,2.39
						C249.81,307.17,250.56,307.39,251.6,307.39z"/>
					<path class="st4" d="M264.06,319.2h-2.05l7.32-20.9h2.01L264.06,319.2z"/>
					<path class="st4" d="M278.27,315.21h-1.88l-0.65-14.96h1.88L278.27,315.21z"/>
					<path class="st4" d="M284.92,300.25h8.85V302h-6.89l0.58,13.21h-1.88L284.92,300.25z"/>
				</g>
			</g>
		</g>
	</g>
</g>
</svg>
