<?xml version="1.0" encoding="utf-8"?>
<!-- Generator: Adobe Illustrator 27.3.1, SVG Export Plug-In . SVG Version: 6.00 Build 0)  -->
<svg version="1.1" xmlns="http://www.w3.org/2000/svg" xmlns:xlink="http://www.w3.org/1999/xlink" x="0px" y="0px"
	 viewBox="0 0 932.77 566.93" style="enable-background:new 0 0 932.77 566.93;" xml:space="preserve">
<style type="text/css">
	.st0{display:none;}
	.st1{display:inline;}
	.st2{fill-rule:evenodd;clip-rule:evenodd;fill:#007C8B;}
	.st3{fill:#89A358;}
	.st4{fill:#007C8B;}
	.st5{fill-rule:evenodd;clip-rule:evenodd;fill:#89A358;}
	.st6{display:inline;fill:#89A358;}
	.st7{display:inline;fill:#007C8B;}
</style>
<g id="Layer_1" class="st0">
</g>
<g id="Layer_4" class="st0">
</g>
<g id="Layer_3" class="st0">
</g>
<g id="Layer_2">
	<g>
		<g>
			<circle class="st2" cx="466.38" cy="235.73" r="12.45"/>
			<circle class="st2" cx="466.38" cy="201.88" r="12.45"/>
			<g>
				<path class="st3" d="M493.61,234.4c-4.1,13.21-17.33,22.88-23.02,35.92c-4.24,9.71,4.51,16.88,7.32,22.04
					c12-15.96,29.02-38.89,31.57-58.58c2.89-22.3-11.21-40.03-29.41-54.25C493.89,196.23,499.87,214.23,493.61,234.4z"/>
				<path class="st3" d="M439.16,234.4c4.1,13.21,17.33,22.88,23.02,35.92c4.24,9.71-4.51,16.88-7.32,22.04
					c-12-15.96-29.02-38.89-31.57-58.58c-2.89-22.3,11.21-40.03,29.41-54.25C438.88,196.23,432.9,214.23,439.16,234.4z"/>
			</g>
			<g>
				<path class="st4" d="M405.13,290.55c-14.7,2.31-27.05,14.87-41.82,18.89c-10.99,2.99-17.26-7.43-22.31-11.23
					c18.85-10.28,45.92-24.81,67.28-24.45c24.19,0.41,40.85,18.18,53.14,39.77C445.79,296.21,427.56,287.03,405.13,290.55z"/>
				<circle class="st5" cx="404.77" cy="253.78" r="12.45"/>
				<path class="st4" d="M527.64,290.55c14.7,2.31,27.05,14.87,41.82,18.89c10.99,2.99,17.26-7.43,22.31-11.23
					c-18.85-10.28-45.92-24.81-67.28-24.45c-24.19,0.41-40.85,18.18-53.14,39.77C486.98,296.21,505.21,287.03,527.64,290.55z"/>
				<circle class="st5" cx="528" cy="253.78" r="12.45"/>
			</g>
		</g>
		<g>
			<path class="st4" d="M319.89,345.97h-1.26c-1.03,0-1.54-0.28-1.54-0.85c0-0.51,0.36-0.76,1.07-0.76c0.37,0,0.74,0.04,1.11,0.11
				l0.27-1.66c-0.52-0.07-0.96-0.11-1.31-0.11c-1.09,0-1.92,0.26-2.49,0.77c-0.49,0.45-0.74,1.02-0.74,1.71
				c0,0.43,0.14,0.72,0.42,0.87c-0.28-0.06-0.69-0.09-1.25-0.09v1.66h5.71V345.97z"/>
			<path class="st4" d="M333.51,345.27c-1.8,0-3.6,0.29-5.39,0.87l0.27,2.1c1.63-0.54,3.21-0.8,4.76-0.8c2.19,0,3.8,0.55,4.81,1.66
				c0.99,1.09,1.49,2.8,1.49,5.11v0.27h-2.25v-0.51c0-1.36-0.31-2.43-0.92-3.21c-0.7-0.88-1.76-1.32-3.17-1.32
				c-1.32,0-2.36,0.35-3.14,1.05c-0.75,0.68-1.13,1.58-1.13,2.68c0,0.59,0.19,1.07,0.58,1.42c-0.3-0.07-0.64-0.11-1.04-0.11h-1.52
				h-0.33h-1.89v-13.37h-2.94v13.37h-4.65c-2.03,0-3.46-0.38-4.31-1.13c-0.8-0.7-1.21-1.86-1.21-3.47c0-1.34,0.25-2.56,0.76-3.67
				l-3.14,0.51c-0.38,1.06-0.58,2.22-0.58,3.5c0,2.14,0.6,3.75,1.81,4.81c1.33,1.18,3.45,1.77,6.35,1.77h9.78h0.33h15.4v-2.38
				C342.25,348.32,339.34,345.27,333.51,345.27z M334.8,354.57h-1.47c-1.4,0-2.1-0.59-2.1-1.76c0-1.02,0.56-1.53,1.67-1.53
				c1.26,0,1.89,0.88,1.89,2.65V354.57z"/>
			<path class="st4" d="M373.23,354.48h-2.42h-0.34h-1.84c0.07-1.09,0.11-2.04,0.11-2.87c0-2.11-0.24-4.17-0.72-6.16l-2.87,0.39
				c0.43,1.93,0.65,3.91,0.65,5.96c0,0.95-0.05,1.84-0.16,2.67h-0.58c-1.04,0-1.74-0.13-2.08-0.4c-0.36-0.28-0.54-0.85-0.54-1.72
				v-5.58h-2.82v5.03c0,1.9-0.59,2.84-1.78,2.84c-0.63,0-1.05-0.23-1.26-0.68c-0.18-0.38-0.27-1.11-0.27-2.18v-4.11h-2.93v4.05
				c0,1.06-0.16,1.79-0.47,2.19c-0.29,0.38-0.8,0.56-1.54,0.56h-0.77h-0.34h-1.89v-13.37h-2.93v15.68h4.82h0.34h0.75
				c1.52,0,2.51-0.52,2.96-1.55c0.38,1.15,1.37,1.73,2.95,1.73c1.71,0,2.83-0.57,3.36-1.71c0.32,0.59,0.79,1,1.42,1.23
				c0.59,0.2,1.48,0.3,2.69,0.3h5.73h0.34h5.35v-15.68h-2.93V354.48z"/>
			<rect x="379.94" y="341.12" class="st4" width="2.93" height="15.68"/>
			<path class="st4" d="M400.05,346.06c-1.53,0-2.79,0.4-3.79,1.18c-0.93,0.73-1.52,1.71-1.79,2.93h-0.53
				c-1.71,0-2.92,0.5-3.63,1.49c-0.64,0.92-0.84,2.21-0.58,3.87l1.13,7.05h2.82l-1.15-7.26c-0.17-1.04-0.15-1.77,0.04-2.19
				c0.2-0.42,0.61-0.63,1.26-0.63h0.49c0.32,2.87,2.28,4.31,5.87,4.31h4.88v-5.62C405.07,347.76,403.4,346.06,400.05,346.06z
				 M402.23,354.48h-1.69c-2.22,0-3.33-1.04-3.33-3.12c0-0.88,0.23-1.6,0.69-2.15c0.48-0.56,1.13-0.85,1.94-0.85
				c1.59,0,2.39,1.05,2.39,3.16V354.48z"/>
			<path class="st4" d="M412.07,339.05h-1.3c-1.06,0-1.59-0.28-1.59-0.85c0-0.51,0.37-0.76,1.12-0.76c0.38,0,0.76,0.04,1.13,0.11
				l0.27-1.51c-0.31-0.09-0.75-0.13-1.31-0.13c-1.08,0-1.91,0.24-2.49,0.73c-0.49,0.41-0.74,0.92-0.74,1.52
				c0,0.47,0.17,0.8,0.51,0.98c-0.28-0.06-0.72-0.09-1.34-0.09v1.53h5.73V339.05z"/>
			<polygon class="st4" points="415.86,354.48 413.08,354.48 412.74,354.48 410.85,354.48 410.85,341.79 407.91,341.79 
				407.91,356.8 412.74,356.8 413.08,356.8 418.79,356.8 418.79,346.34 415.86,346.34 			"/>
			<path class="st4" d="M415.67,358.6c-0.42,0-0.78,0.15-1.09,0.44c-0.3,0.3-0.45,0.67-0.45,1.09c0,0.43,0.15,0.8,0.45,1.1
				c0.3,0.3,0.67,0.45,1.09,0.45c0.43,0,0.79-0.15,1.09-0.46c0.3-0.3,0.46-0.66,0.46-1.09c0-0.43-0.15-0.79-0.46-1.09
				C416.46,358.75,416.1,358.6,415.67,358.6z"/>
			<path class="st4" d="M432.17,344.66c0.41,0,0.76-0.15,1.04-0.44c0.28-0.3,0.42-0.65,0.42-1.07c0-0.43-0.14-0.79-0.42-1.07
				c-0.28-0.3-0.63-0.45-1.04-0.45c-0.41,0-0.75,0.15-1.04,0.45c-0.28,0.3-0.42,0.65-0.42,1.07c0,0.42,0.14,0.77,0.42,1.07
				C431.41,344.51,431.75,344.66,432.17,344.66z"/>
			<path class="st4" d="M428.47,344.66c0.42,0,0.77-0.15,1.06-0.44c0.28-0.3,0.42-0.65,0.42-1.07c0-0.43-0.14-0.79-0.42-1.07
				c-0.29-0.3-0.64-0.45-1.06-0.45c-0.41,0-0.75,0.15-1.04,0.45c-0.28,0.3-0.42,0.65-0.42,1.07c0,0.42,0.14,0.77,0.42,1.07
				C427.71,344.51,428.06,344.66,428.47,344.66z"/>
			<path class="st4" d="M439,358.62c-0.41,0-0.75,0.15-1.04,0.45c-0.28,0.3-0.42,0.65-0.42,1.06c0,0.43,0.14,0.79,0.42,1.08
				s0.63,0.43,1.04,0.43c0.42,0,0.77-0.15,1.06-0.44c0.28-0.29,0.42-0.64,0.42-1.07c0-0.42-0.14-0.78-0.42-1.07
				C439.77,358.76,439.42,358.62,439,358.62z"/>
			<path class="st4" d="M442.69,358.62c-0.41,0-0.75,0.15-1.04,0.45c-0.28,0.3-0.42,0.65-0.42,1.06c0,0.43,0.14,0.79,0.42,1.08
				s0.63,0.43,1.04,0.43c0.41,0,0.75-0.15,1.04-0.44c0.28-0.3,0.42-0.65,0.42-1.07c0-0.42-0.14-0.78-0.42-1.07
				C443.45,358.76,443.1,358.62,442.69,358.62z"/>
			<path class="st4" d="M460.4,345.27c-1.8,0-3.6,0.29-5.39,0.87l0.27,2.1c1.63-0.54,3.21-0.8,4.76-0.8c2.19,0,3.8,0.55,4.81,1.66
				c0.99,1.09,1.49,2.8,1.49,5.11v0.27h-2.25v-0.51c0-1.36-0.31-2.43-0.92-3.21c-0.7-0.88-1.76-1.32-3.17-1.32
				c-1.32,0-2.36,0.35-3.14,1.05c-0.75,0.68-1.13,1.58-1.13,2.68c0,0.59,0.19,1.07,0.58,1.42c-0.3-0.07-0.64-0.11-1.04-0.11h-1.51
				h-0.34h-1.89v-13.37h-2.93v13.37h-2.41h-0.35h-2.68v-8.14h-2.93v8.14h-2.79h-0.33h-1.85v-7.65c-1.35-0.51-2.9-0.77-4.65-0.77
				c-1.93,0-3.43,0.56-4.48,1.69c-0.94,1.01-1.41,2.31-1.41,3.89c0,3.44,1.99,5.16,5.96,5.16h6.43h0.33h8.4h0.35h7.23h0.34h15.39
				v-2.38C469.14,348.32,466.23,345.27,460.4,345.27z M432.42,354.48h-1.42c-2.23,0-3.34-1.04-3.34-3.12c0-0.88,0.23-1.6,0.71-2.15
				c0.48-0.56,1.13-0.85,1.94-0.85c0.85,0,1.55,0.13,2.12,0.4V354.48z M461.69,354.57h-1.47c-1.4,0-2.1-0.59-2.1-1.76
				c0-1.02,0.56-1.53,1.67-1.53c1.26,0,1.89,0.88,1.89,2.65V354.57z"/>
			<polygon class="st4" points="478.27,354.48 471.4,354.48 471.4,356.8 481.2,356.8 481.2,341.5 478.27,341.5 			"/>
			<path class="st4" d="M475.26,342.43h-1.36c-0.95,0-1.42-0.24-1.42-0.72c0-0.43,0.33-0.64,1-0.64c0.48,0,0.86,0.04,1.12,0.11
				l0.26-1.51c-0.31-0.09-0.75-0.13-1.31-0.13c-1,0-1.78,0.22-2.33,0.65c-0.5,0.4-0.75,0.91-0.75,1.52c0,0.37,0.11,0.64,0.33,0.8
				c-0.28-0.06-0.65-0.09-1.13-0.09v1.53h5.6V342.43z"/>
			<polygon class="st4" points="476.64,352.81 474.31,344.7 471.29,344.7 473.67,352.81 			"/>
			<rect x="484.74" y="341.12" class="st4" width="2.93" height="15.68"/>
			<path class="st4" d="M497.38,344.66c0.42,0,0.77-0.15,1.06-0.44c0.28-0.3,0.42-0.65,0.42-1.07c0-0.43-0.14-0.79-0.42-1.07
				c-0.29-0.3-0.64-0.45-1.06-0.45c-0.41,0-0.75,0.15-1.04,0.45c-0.28,0.3-0.42,0.65-0.42,1.07c0,0.42,0.14,0.77,0.42,1.07
				C496.62,344.51,496.97,344.66,497.38,344.66z"/>
			<path class="st4" d="M501.08,344.66c0.41,0,0.76-0.15,1.04-0.44c0.28-0.3,0.42-0.65,0.42-1.07c0-0.43-0.14-0.79-0.42-1.07
				c-0.28-0.3-0.63-0.45-1.04-0.45c-0.41,0-0.75,0.15-1.04,0.45c-0.28,0.3-0.42,0.65-0.42,1.07c0,0.42,0.14,0.77,0.42,1.07
				C500.32,344.51,500.66,344.66,501.08,344.66z"/>
			<path class="st4" d="M511.6,358.62c-0.41,0-0.75,0.15-1.04,0.45c-0.28,0.3-0.42,0.65-0.42,1.06c0,0.43,0.14,0.79,0.42,1.08
				s0.63,0.43,1.04,0.43c0.41,0,0.75-0.15,1.04-0.44c0.28-0.3,0.42-0.65,0.42-1.07c0-0.42-0.14-0.78-0.42-1.07
				C512.36,358.76,512.01,358.62,511.6,358.62z"/>
			<path class="st4" d="M507.91,358.62c-0.41,0-0.75,0.15-1.04,0.45c-0.28,0.3-0.42,0.65-0.42,1.06c0,0.43,0.14,0.79,0.42,1.08
				c0.28,0.29,0.63,0.43,1.04,0.43c0.42,0,0.77-0.15,1.06-0.44c0.28-0.29,0.42-0.64,0.42-1.07c0-0.42-0.14-0.78-0.42-1.07
				C508.68,358.76,508.32,358.62,507.91,358.62z"/>
			<path class="st4" d="M533.82,344.47c0.42,0,0.78-0.15,1.09-0.45c0.3-0.3,0.45-0.67,0.45-1.09c0-0.42-0.15-0.78-0.45-1.09
				c-0.3-0.3-0.67-0.45-1.09-0.45c-0.42,0-0.78,0.15-1.09,0.45c-0.3,0.3-0.45,0.67-0.45,1.09c0,0.43,0.15,0.8,0.45,1.1
				C533.04,344.33,533.4,344.47,533.82,344.47z"/>
			<path class="st4" d="M539.45,344.66c0.42,0,0.77-0.15,1.06-0.44c0.28-0.3,0.42-0.65,0.42-1.07c0-0.43-0.14-0.79-0.42-1.07
				c-0.29-0.3-0.64-0.45-1.06-0.45c-0.41,0-0.75,0.15-1.04,0.45c-0.28,0.3-0.42,0.65-0.42,1.07c0,0.42,0.14,0.77,0.42,1.07
				C538.69,344.51,539.04,344.66,539.45,344.66z"/>
			<path class="st4" d="M543.14,344.66c0.41,0,0.75-0.15,1.04-0.44c0.28-0.3,0.42-0.65,0.42-1.07c0-0.43-0.14-0.79-0.42-1.07
				c-0.28-0.3-0.63-0.45-1.04-0.45c-0.41,0-0.75,0.15-1.04,0.45c-0.28,0.3-0.42,0.65-0.42,1.07c0,0.42,0.14,0.77,0.42,1.07
				C542.38,344.51,542.73,344.66,543.14,344.66z"/>
			<path class="st4" d="M547.58,354.48h-2.42h-0.34h-1.64v-8.14h-2.93v8.14h-2.78h-0.34h-1.85v-8.14h-2.93v8.14h-2.77h-0.35h-1.52
				v-3.31c0-3.41-1.68-5.11-5.03-5.11c-1.84,0-3.29,0.55-4.34,1.64c-0.96,1-1.43,2.25-1.43,3.76c0,1.12-0.23,1.92-0.68,2.39
				c-0.41,0.43-1.05,0.64-1.92,0.64h-2.25v-8.14h-2.93v8.14h-2.79h-0.33h-1.85v-7.65c-1.35-0.51-2.9-0.77-4.65-0.77
				c-1.93,0-3.43,0.56-4.48,1.69c-0.94,1.01-1.41,2.31-1.41,3.89c0,3.44,1.99,5.16,5.96,5.16h6.43h0.33h7.97h0.34h0.45v-0.02
				c1.64-0.09,2.67-0.66,3.08-1.72c0.93,1.16,2.59,1.74,4.98,1.74h6.08h0.35h7.55h0.34h7.35h0.34h5.35v-15.68h-2.93V354.48z
				 M501.33,354.48h-1.42c-2.23,0-3.34-1.04-3.34-3.12c0-0.88,0.23-1.6,0.71-2.15c0.48-0.56,1.13-0.85,1.94-0.85
				c0.85,0,1.55,0.13,2.12,0.4V354.48z M524.86,354.48h-1.69c-2.22,0-3.33-1.04-3.33-3.12c0-0.88,0.23-1.6,0.69-2.15
				c0.48-0.56,1.14-0.85,1.95-0.85c1.59,0,2.38,1.05,2.38,3.16V354.48z"/>
			<rect x="554.07" y="341.12" class="st4" width="2.93" height="15.68"/>
			<path class="st4" d="M570.41,344.66c0.41,0,0.76-0.15,1.04-0.44c0.28-0.3,0.42-0.65,0.42-1.07c0-0.43-0.14-0.79-0.42-1.07
				c-0.28-0.3-0.63-0.45-1.04-0.45c-0.41,0-0.75,0.15-1.04,0.45c-0.28,0.3-0.42,0.65-0.42,1.07c0,0.42,0.14,0.77,0.42,1.07
				C569.65,344.51,570,344.66,570.41,344.66z"/>
			<path class="st4" d="M566.72,344.66c0.42,0,0.77-0.15,1.06-0.44c0.28-0.3,0.42-0.65,0.42-1.07c0-0.43-0.14-0.79-0.42-1.07
				c-0.29-0.3-0.64-0.45-1.06-0.45c-0.41,0-0.75,0.15-1.04,0.45c-0.28,0.3-0.42,0.65-0.42,1.07c0,0.42,0.14,0.77,0.42,1.07
				C565.96,344.51,566.3,344.66,566.72,344.66z"/>
			<path class="st4" d="M580.93,358.62c-0.41,0-0.75,0.15-1.04,0.45c-0.28,0.3-0.42,0.65-0.42,1.06c0,0.43,0.14,0.79,0.42,1.08
				c0.28,0.29,0.63,0.43,1.04,0.43c0.41,0,0.75-0.15,1.04-0.44c0.28-0.3,0.42-0.65,0.42-1.07c0-0.42-0.14-0.78-0.42-1.07
				C581.69,358.76,581.34,358.62,580.93,358.62z"/>
			<path class="st4" d="M577.24,358.62c-0.41,0-0.75,0.15-1.04,0.45c-0.28,0.3-0.42,0.65-0.42,1.06c0,0.43,0.14,0.79,0.42,1.08
				c0.28,0.29,0.63,0.43,1.04,0.43c0.42,0,0.77-0.15,1.06-0.44c0.28-0.29,0.42-0.64,0.42-1.07c0-0.42-0.14-0.78-0.42-1.07
				C578.01,358.76,577.66,358.62,577.24,358.62z"/>
			<path class="st4" d="M622.57,347.85c-1.12-1.09-2.91-1.64-5.36-1.64c-0.85,0-1.8,0.07-2.84,0.21v2.29
				c0.88-0.12,1.73-0.18,2.55-0.18c1.56,0,2.69,0.36,3.39,1.08c0.65,0.68,0.98,1.74,0.98,3.19c0,0.54-0.04,1.1-0.11,1.69h-8.26
				h-0.35h-1.52v-3.31c0-3.41-1.68-5.11-5.03-5.11c-1.84,0-3.29,0.55-4.34,1.64c-0.96,1-1.43,2.25-1.43,3.76
				c0,1.12-0.23,1.92-0.68,2.39c-0.41,0.43-1.05,0.64-1.92,0.64h-0.69c-0.85,0-1.68-0.19-2.48-0.57c1.51-1.27,2.27-2.69,2.27-4.27
				c0-1.05-0.37-1.9-1.1-2.55c-0.83-0.73-2.03-1.1-3.59-1.1c-2.01,0-4.15,0.82-6.43,2.46l-0.24,2.1c1.14,0.31,2.69,1.39,4.67,3.25
				c-1.4,0.46-3.13,0.68-5.18,0.68h-0.43h-0.35h-2.68v-8.14h-2.93v8.14h-2.79h-0.33h-1.85v-7.65c-1.35-0.51-2.9-0.77-4.65-0.77
				c-1.93,0-3.43,0.56-4.48,1.69c-0.94,1.01-1.41,2.31-1.41,3.89c0,3.44,1.99,5.16,5.96,5.16h6.43h0.33h8.4h0.35h0.25
				c2.84,0,5.28-0.46,7.34-1.38c1.38,0.92,2.91,1.38,4.58,1.38h1.03h0.34h0.43v-0.02c1.64-0.09,2.68-0.65,3.09-1.72
				c0.93,1.16,2.59,1.74,4.98,1.74h6.08h0.35h10.9c0.25-1.51,0.38-2.88,0.38-4.11C624.19,350.5,623.65,348.89,622.57,347.85z
				 M570.66,354.48h-1.42c-2.23,0-3.34-1.04-3.34-3.12c0-0.88,0.23-1.6,0.71-2.15c0.48-0.56,1.13-0.85,1.94-0.85
				c0.85,0,1.55,0.13,2.12,0.4V354.48z M592.44,352.55c-2.16-1.82-3.54-2.84-4.11-3.07c1.33-0.89,2.46-1.34,3.38-1.34
				c0.69,0,1.22,0.18,1.6,0.54c0.35,0.33,0.52,0.77,0.52,1.32C593.82,350.98,593.36,351.83,592.44,352.55z M608.17,354.48h-1.69
				c-2.22,0-3.33-1.04-3.33-3.12c0-0.88,0.23-1.6,0.69-2.15c0.48-0.56,1.14-0.85,1.95-0.85c1.59,0,2.38,1.05,2.38,3.16V354.48z"/>
			<path class="st4" d="M617.83,358.6c-0.42,0-0.78,0.15-1.07,0.44c-0.3,0.3-0.46,0.67-0.46,1.09c0,0.43,0.15,0.8,0.46,1.1
				c0.3,0.3,0.65,0.45,1.07,0.45c0.43,0,0.79-0.15,1.09-0.46c0.3-0.3,0.46-0.66,0.46-1.09c0-0.43-0.15-0.79-0.46-1.09
				C618.62,358.75,618.25,358.6,617.83,358.6z"/>
		</g>
		<g>
			<g>
				<path class="st4" d="M443.28,373.39c0.26,0,0.49-0.09,0.68-0.28c0.18-0.18,0.27-0.41,0.27-0.67s-0.09-0.49-0.27-0.67
					c-0.19-0.18-0.41-0.27-0.68-0.27s-0.49,0.09-0.68,0.27c-0.18,0.18-0.27,0.4-0.27,0.66c0,0.27,0.09,0.49,0.27,0.68
					C442.78,373.29,443.01,373.39,443.28,373.39z"/>
				<path class="st4" d="M449.95,383.58c-0.25,0-0.46,0.09-0.64,0.28c-0.18,0.19-0.27,0.4-0.27,0.65c0,0.26,0.09,0.49,0.27,0.68
					c0.18,0.18,0.39,0.27,0.64,0.27c0.26,0,0.48-0.09,0.66-0.27c0.17-0.18,0.26-0.41,0.26-0.68c0-0.26-0.09-0.48-0.26-0.66
					C450.44,383.68,450.22,383.58,449.95,383.58z"/>
				<path class="st4" d="M451.68,380.85h-2.8h-0.23h-1.11c0.05-0.47,0.08-0.97,0.08-1.51c0-1.52-0.36-2.65-1.09-3.38
					c-0.76-0.76-1.99-1.15-3.68-1.15c-0.62,0-1.26,0.05-1.91,0.14v1.34c0.51-0.09,1.1-0.13,1.75-0.13c1.17,0,2.02,0.27,2.52,0.82
					c0.48,0.51,0.71,1.33,0.71,2.45c0,0.48-0.03,0.95-0.09,1.42h-1.18c-1.68,0-2.94,0.32-3.79,0.95c-0.75,0.56-1.12,1.34-1.12,2.35
					c0,0.93,0.36,1.66,1.07,2.19c0.75,0.56,1.84,0.84,3.27,0.84c1.01,0,2.03-0.11,3.04-0.33l-0.13-1.32c-0.97,0.2-1.88,0.3-2.73,0.3
					c-0.93,0-1.64-0.17-2.13-0.52c-0.46-0.32-0.68-0.74-0.68-1.28c0-1.22,1.05-1.82,3.14-1.82h4.08h0.23h4.52v-7.31h-1.72V380.85z"
					/>
				<path class="st4" d="M452.38,383.58c-0.26,0-0.48,0.09-0.65,0.28c-0.18,0.18-0.27,0.4-0.27,0.65c0,0.26,0.09,0.49,0.27,0.68
					c0.18,0.18,0.39,0.27,0.65,0.27c0.25,0,0.47-0.09,0.65-0.27c0.18-0.19,0.27-0.41,0.27-0.68c0-0.26-0.09-0.48-0.27-0.66
					C452.85,383.68,452.64,383.58,452.38,383.58z"/>
				<path class="st4" d="M457.95,382.39c0,0.9-0.17,1.54-0.5,1.92c-0.3,0.34-0.76,0.52-1.4,0.52c-0.51,0-0.98-0.07-1.41-0.22
					l-0.17,1.37c0.47,0.13,0.97,0.2,1.5,0.2c2.47,0,3.7-1.3,3.7-3.9v-7.39h-1.71V382.39z"/>
				<path class="st4" d="M469.47,373.57c0.26,0,0.48-0.09,0.65-0.27c0.18-0.18,0.27-0.4,0.27-0.66c0-0.25-0.09-0.47-0.27-0.65
					c-0.18-0.18-0.39-0.27-0.65-0.27c-0.25,0-0.47,0.09-0.65,0.27c-0.18,0.18-0.27,0.4-0.27,0.65c0,0.27,0.09,0.49,0.27,0.67
					C469,373.48,469.22,373.57,469.47,373.57z"/>
				<path class="st4" d="M467.05,373.57c0.26,0,0.48-0.09,0.65-0.27c0.18-0.18,0.27-0.4,0.27-0.66c0-0.26-0.09-0.48-0.27-0.65
					c-0.17-0.18-0.39-0.27-0.65-0.27c-0.25,0-0.46,0.09-0.64,0.27c-0.18,0.18-0.27,0.4-0.27,0.65c0,0.26,0.09,0.49,0.27,0.67
					C466.58,373.48,466.79,373.57,467.05,373.57z"/>
				<path class="st4" d="M472.64,383.58c-0.26,0-0.49,0.09-0.67,0.28c-0.19,0.18-0.28,0.4-0.28,0.67c0,0.26,0.09,0.49,0.28,0.68
					c0.18,0.18,0.41,0.27,0.67,0.27c0.26,0,0.49-0.09,0.68-0.27c0.18-0.19,0.27-0.41,0.27-0.68c0-0.26-0.09-0.49-0.27-0.67
					C473.13,383.68,472.91,383.58,472.64,383.58z"/>
				<polygon class="st4" points="472.88,380.85 470.89,380.85 470.65,380.85 469.38,380.85 469.38,374.89 467.67,374.89 
					467.67,380.85 465.68,380.85 465.45,380.85 464.03,380.85 464.03,371.24 462.32,371.24 462.32,382.2 465.45,382.2 465.68,382.2 
					470.65,382.2 470.89,382.2 474.59,382.2 474.59,374.89 472.88,374.89 				"/>
				<path class="st4" d="M536.31,378.22c0-2.34-1.14-3.52-3.42-3.52c-1.25,0-2.23,0.38-2.95,1.15c-0.66,0.7-0.99,1.58-0.99,2.65
					c0,1.17,0.34,1.98,1.02,2.44c-0.23-0.06-0.52-0.09-0.89-0.09h-0.82H528h-1.19v-2.63c0-2.34-1.14-3.52-3.43-3.52
					c-1.07,0-1.95,0.29-2.63,0.87c-0.64,0.53-1.05,1.24-1.21,2.12h-0.42c-1.13,0-1.93,0.33-2.4,1c-0.44,0.62-0.56,1.49-0.39,2.6
					l0.8,4.94h1.65l-0.81-5.07c-0.12-0.76-0.1-1.31,0.08-1.64c0.17-0.33,0.51-0.49,1.02-0.49h0.4c0.17,2.11,1.53,3.16,4.08,3.16H528
					h0.25h8.06V378.22z M525.14,380.85h-1.38c-1.74,0-2.61-0.81-2.61-2.43c0-0.71,0.19-1.28,0.56-1.7c0.38-0.44,0.9-0.66,1.56-0.66
					c1.25,0,1.88,0.81,1.88,2.43V380.85z M534.64,380.85h-1.38c-1.74,0-2.61-0.81-2.61-2.43c0-0.71,0.19-1.28,0.56-1.7
					c0.38-0.44,0.9-0.66,1.56-0.66c1.25,0,1.88,0.81,1.88,2.43V380.85z"/>
				<path class="st4" d="M533.92,373.57c0.26,0,0.48-0.09,0.65-0.27c0.18-0.18,0.27-0.4,0.27-0.66c0-0.25-0.09-0.47-0.27-0.65
					c-0.18-0.18-0.39-0.27-0.65-0.27c-0.25,0-0.47,0.09-0.65,0.27c-0.18,0.18-0.27,0.4-0.27,0.65c0,0.27,0.09,0.49,0.27,0.67
					C533.45,373.48,533.66,373.57,533.92,373.57z"/>
				<path class="st4" d="M531.5,373.57c0.26,0,0.48-0.09,0.65-0.27c0.18-0.18,0.27-0.4,0.27-0.66c0-0.26-0.09-0.48-0.27-0.65
					c-0.18-0.18-0.39-0.27-0.65-0.27c-0.25,0-0.46,0.09-0.64,0.27c-0.18,0.18-0.27,0.4-0.27,0.65c0,0.26,0.09,0.49,0.27,0.67
					C531.03,373.48,531.25,373.57,531.5,373.57z"/>
				<path class="st4" d="M544.62,383.58c-0.26,0-0.49,0.09-0.67,0.28c-0.19,0.18-0.28,0.4-0.28,0.67c0,0.26,0.09,0.49,0.28,0.68
					c0.18,0.18,0.41,0.27,0.67,0.27c0.26,0,0.49-0.09,0.68-0.27c0.18-0.19,0.27-0.41,0.27-0.68c0-0.26-0.09-0.49-0.27-0.67
					C545.1,383.68,544.88,383.58,544.62,383.58z"/>
				<path class="st4" d="M544.85,380.85h-1.98h-0.24h-1.39v-5.96h-1.71v7.5c0,0.9-0.17,1.54-0.5,1.92c-0.3,0.34-0.76,0.52-1.4,0.52
					c-0.51,0-0.98-0.07-1.41-0.22l-0.17,1.37c0.47,0.13,0.97,0.2,1.5,0.2c2.47,0,3.7-1.3,3.7-3.9v-0.08h1.39h0.24h3.69v-7.31h-1.71
					V380.85z"/>
				<path class="st4" d="M554.15,373.57c0.26,0,0.48-0.09,0.66-0.27c0.17-0.18,0.26-0.4,0.26-0.66c0-0.26-0.09-0.48-0.26-0.65
					c-0.18-0.18-0.4-0.27-0.66-0.27c-0.25,0-0.46,0.09-0.64,0.27c-0.18,0.18-0.27,0.4-0.27,0.65c0,0.26,0.09,0.49,0.27,0.67
					C553.69,373.48,553.91,373.57,554.15,373.57z"/>
				<path class="st4" d="M556.58,373.57c0.25,0,0.47-0.09,0.65-0.27c0.18-0.18,0.27-0.4,0.27-0.66c0-0.25-0.09-0.47-0.27-0.65
					c-0.18-0.18-0.39-0.27-0.65-0.27c-0.26,0-0.48,0.09-0.65,0.27c-0.18,0.18-0.27,0.4-0.27,0.65c0,0.27,0.09,0.49,0.27,0.67
					C556.11,373.48,556.33,373.57,556.58,373.57z"/>
				<path class="st4" d="M568.96,383.58c-0.26,0-0.49,0.09-0.67,0.28c-0.19,0.18-0.28,0.4-0.28,0.67c0,0.26,0.09,0.49,0.28,0.68
					c0.18,0.18,0.41,0.27,0.67,0.27c0.27,0,0.49-0.09,0.68-0.27c0.18-0.19,0.27-0.41,0.27-0.68c0-0.26-0.09-0.49-0.27-0.67
					C569.46,383.68,569.23,383.58,568.96,383.58z"/>
				<path class="st4" d="M593.11,374.71c-1.25,0-2.23,0.38-2.95,1.15c-0.66,0.7-0.99,1.58-0.99,2.65c0,1.17,0.34,1.98,1.02,2.44
					c-0.23-0.06-0.52-0.09-0.89-0.09h-0.83h-0.24h-1.39c0.06-0.73,0.09-1.46,0.09-2.16c0-1.54-0.18-2.99-0.53-4.37l-1.66,0.28
					c0.32,1.3,0.49,2.71,0.49,4.21c0,0.59-0.04,1.27-0.11,2.04h-0.46c-0.82,0-1.36-0.1-1.63-0.3c-0.3-0.22-0.46-0.69-0.46-1.39
					v-3.96h-1.63v3.49c0,1.52-0.48,2.29-1.44,2.29c-0.52,0-0.86-0.19-1.02-0.58c-0.13-0.29-0.19-0.87-0.19-1.72v-2.85h-1.71v2.99
					c0,0.77-0.12,1.31-0.35,1.61c-0.22,0.28-0.61,0.43-1.16,0.43h-0.47h-0.24h-1.09c0.05-0.47,0.08-0.97,0.08-1.51
					c0-1.52-0.36-2.65-1.09-3.38c-0.77-0.76-2-1.15-3.68-1.15c-0.62,0-1.26,0.05-1.91,0.14v1.34c0.51-0.09,1.1-0.13,1.76-0.13
					c1.17,0,2.01,0.27,2.52,0.82c0.48,0.51,0.71,1.33,0.71,2.45c0,0.48-0.03,0.95-0.1,1.42h-5.99h-0.24h-1.39v-9.61h-1.72v9.61
					h-1.83h-0.24h-1.4v-5.6c-0.94-0.36-2-0.55-3.19-0.55c-1.3,0-2.3,0.39-3.02,1.17c-0.65,0.7-0.97,1.6-0.97,2.7
					c0,2.41,1.37,3.62,4.12,3.62h4.46h0.24h4.94h0.24h8.8h0.24h0.46c1.1,0,1.8-0.39,2.09-1.17c0.25,0.85,0.93,1.28,2.04,1.28
					c1.2,0,1.98-0.43,2.35-1.28c0.22,0.45,0.56,0.76,1.02,0.93c0.44,0.16,1.12,0.24,2.05,0.24h3.66h0.24h8.07v-3.98
					C596.53,375.88,595.39,374.71,593.11,374.71z M557.05,380.85h-1.2c-1.74,0-2.61-0.82-2.61-2.45c0-0.7,0.19-1.26,0.56-1.69
					c0.38-0.43,0.9-0.65,1.56-0.65c0.67,0,1.24,0.11,1.69,0.33V380.85z M594.86,380.85h-1.38c-1.74,0-2.61-0.81-2.61-2.43
					c0-0.71,0.19-1.28,0.56-1.7c0.38-0.44,0.9-0.66,1.56-0.66c1.25,0,1.88,0.81,1.88,2.43V380.85z"/>
			</g>
			<g>
				<path class="st4" d="M485.89,373.62c-0.06-0.02-0.18-0.04-0.36-0.06c-0.18-0.02-0.4-0.03-0.68-0.03c-0.55,0-1.02,0.05-1.42,0.15
					c-0.39,0.1-0.72,0.23-0.97,0.4c-0.25,0.17-0.44,0.37-0.56,0.6c-0.12,0.23-0.18,0.47-0.18,0.73c0,0.33,0.11,0.61,0.33,0.82
					c0.22,0.22,0.51,0.39,0.86,0.52c0.35,0.13,0.73,0.23,1.15,0.29c0.42,0.06,0.83,0.11,1.22,0.14v1.17
					c-1.07,0.22-1.9,0.55-2.5,1.01c-0.6,0.46-0.9,0.98-0.9,1.57c0,0.2,0.04,0.38,0.12,0.56c0.08,0.18,0.2,0.33,0.38,0.47
					c0.18,0.14,0.4,0.24,0.68,0.33c0.28,0.08,0.62,0.12,1.03,0.12c0.58,0,1.06-0.04,1.44-0.12c0.38-0.08,0.64-0.15,0.77-0.2
					l0.17,1.18c-0.06,0.02-0.18,0.05-0.34,0.09c-0.17,0.04-0.36,0.08-0.58,0.12c-0.22,0.04-0.46,0.07-0.72,0.09
					c-0.26,0.03-0.51,0.04-0.76,0.04c-0.72,0-1.31-0.08-1.77-0.24c-0.47-0.16-0.83-0.37-1.1-0.61c-0.27-0.25-0.46-0.52-0.56-0.82
					c-0.1-0.3-0.16-0.58-0.16-0.85c0-0.77,0.28-1.43,0.83-1.98c0.55-0.55,1.35-0.96,2.37-1.23c-1.05-0.13-1.86-0.39-2.44-0.77
					c-0.58-0.38-0.87-0.97-0.87-1.77c0-0.4,0.1-0.79,0.29-1.15c0.19-0.36,0.47-0.68,0.85-0.96c0.37-0.27,0.84-0.49,1.39-0.65
					c0.55-0.16,1.19-0.24,1.92-0.24c0.32,0,0.59,0.01,0.79,0.04c0.21,0.03,0.34,0.05,0.41,0.07L485.89,373.62z"/>
				<path class="st4" d="M493.2,383.38h-1.35l-0.47-10.78h1.35L493.2,383.38z"/>
				<path class="st4" d="M501.15,383.02c-0.58,0-1.1-0.07-1.56-0.22c-0.46-0.14-0.84-0.38-1.16-0.71c-0.32-0.33-0.56-0.74-0.73-1.25
					c-0.17-0.51-0.26-1.13-0.26-1.87c0-0.68,0.07-1.38,0.22-2.09c0.15-0.71,0.37-1.36,0.67-1.94c0.3-0.58,0.68-1.06,1.14-1.43
					c0.46-0.37,1.01-0.56,1.66-0.56c0.65,0,1.22,0.19,1.7,0.56c0.48,0.37,0.87,0.85,1.17,1.43s0.53,1.23,0.68,1.94
					c0.14,0.71,0.22,1.41,0.22,2.09c0,0.71-0.09,1.31-0.26,1.83s-0.42,0.93-0.73,1.26c-0.32,0.33-0.71,0.57-1.17,0.72
					C502.27,382.94,501.74,383.02,501.15,383.02z M501.15,381.77c0.81,0,1.4-0.22,1.78-0.67c0.38-0.45,0.57-1.16,0.57-2.13
					c0-0.51-0.05-1.04-0.15-1.59c-0.1-0.55-0.24-1.07-0.44-1.53c-0.19-0.47-0.44-0.85-0.73-1.16c-0.3-0.31-0.64-0.46-1.02-0.46
					c-0.39,0-0.73,0.15-1.02,0.46c-0.28,0.31-0.53,0.69-0.72,1.16c-0.2,0.47-0.34,0.98-0.44,1.53c-0.09,0.55-0.14,1.09-0.14,1.59
					c0,0.99,0.19,1.7,0.56,2.14C499.78,381.55,500.36,381.77,501.15,381.77z"/>
				<path class="st4" d="M506.89,372.6h6.38v1.26h-4.96l0.42,9.52h-1.35L506.89,372.6z"/>
			</g>
			<g>
				<path class="st4" d="M336.24,383.31h6.69v1.21h-6.69V383.31z"/>
				<path class="st4" d="M351.28,376.8c0.61,0,1.13,0.09,1.56,0.28c0.43,0.19,0.78,0.44,1.06,0.77c0.27,0.33,0.47,0.72,0.6,1.17
					c0.12,0.46,0.19,0.95,0.19,1.49v3.64c-0.29,0.09-0.92,0.18-1.9,0.26c-0.97,0.08-2.34,0.12-4.09,0.12h-6.16v-1.21h2.32
					c-0.11-0.09-0.23-0.22-0.34-0.37c-0.11-0.16-0.22-0.33-0.32-0.54c-0.1-0.2-0.18-0.43-0.24-0.67s-0.09-0.51-0.09-0.79
					c0-0.48,0.08-0.9,0.25-1.28c0.17-0.38,0.39-0.7,0.66-0.96c0.27-0.26,0.59-0.47,0.95-0.61c0.36-0.14,0.73-0.21,1.11-0.21
					c0.19,0,0.39,0.02,0.61,0.05c0.22,0.04,0.44,0.1,0.65,0.18C348.95,377.24,350.01,376.8,351.28,376.8z M348.7,383.31v-1.96
					c0-0.68-0.15-1.23-0.46-1.63c-0.31-0.4-0.74-0.61-1.31-0.61c-0.28,0-0.52,0.05-0.73,0.16c-0.21,0.1-0.38,0.24-0.51,0.41
					c-0.13,0.17-0.24,0.37-0.3,0.59s-0.1,0.46-0.1,0.71c0,0.4,0.05,0.75,0.15,1.05c0.1,0.3,0.23,0.54,0.4,0.72
					c0.17,0.19,0.36,0.33,0.59,0.42c0.23,0.09,0.47,0.14,0.73,0.14H348.7z M350.05,383.31c0.38,0,0.76-0.01,1.12-0.02
					c0.36-0.02,0.69-0.03,0.98-0.05c0.29-0.02,0.54-0.04,0.75-0.06s0.35-0.05,0.44-0.07v-2.49c0-0.39-0.04-0.75-0.12-1.07
					c-0.08-0.32-0.2-0.59-0.38-0.82c-0.18-0.22-0.4-0.39-0.68-0.51c-0.28-0.12-0.63-0.18-1.04-0.18c-0.36,0-0.72,0.07-1.06,0.22
					s-0.63,0.32-0.87,0.53c0.25,0.26,0.46,0.58,0.62,0.97c0.17,0.39,0.25,0.86,0.25,1.42V383.31z"/>
				<path class="st4" d="M361.14,384.53h-1.35l-0.47-10.78h1.35L361.14,384.53z"/>
				<path class="st4" d="M371.62,374.78c-0.06-0.02-0.18-0.04-0.36-0.06c-0.18-0.02-0.4-0.03-0.68-0.03c-0.55,0-1.02,0.05-1.42,0.15
					c-0.39,0.1-0.72,0.23-0.97,0.4c-0.25,0.17-0.44,0.37-0.56,0.6c-0.12,0.23-0.18,0.47-0.18,0.73c0,0.33,0.11,0.61,0.33,0.82
					c0.22,0.22,0.51,0.39,0.86,0.52c0.35,0.13,0.73,0.23,1.15,0.29c0.42,0.06,0.83,0.11,1.22,0.14v1.17
					c-1.07,0.22-1.9,0.55-2.5,1.01c-0.6,0.46-0.9,0.98-0.9,1.57c0,0.2,0.04,0.38,0.12,0.56c0.08,0.18,0.2,0.33,0.38,0.47
					c0.18,0.14,0.4,0.24,0.68,0.33c0.28,0.08,0.62,0.12,1.03,0.12c0.58,0,1.06-0.04,1.44-0.12c0.38-0.08,0.64-0.15,0.77-0.2
					l0.17,1.18c-0.06,0.02-0.18,0.05-0.34,0.09c-0.17,0.04-0.36,0.08-0.58,0.12c-0.22,0.04-0.46,0.07-0.72,0.09
					c-0.26,0.03-0.51,0.04-0.76,0.04c-0.72,0-1.31-0.08-1.77-0.24c-0.47-0.16-0.84-0.37-1.1-0.61c-0.27-0.25-0.46-0.52-0.56-0.82
					c-0.1-0.3-0.16-0.58-0.16-0.85c0-0.77,0.28-1.43,0.83-1.98s1.35-0.96,2.37-1.23c-1.05-0.13-1.86-0.39-2.44-0.77
					c-0.58-0.38-0.87-0.97-0.87-1.77c0-0.4,0.1-0.79,0.29-1.15c0.19-0.36,0.47-0.68,0.85-0.96s0.84-0.49,1.39-0.65
					c0.55-0.16,1.19-0.24,1.92-0.24c0.32,0,0.59,0.01,0.79,0.04c0.21,0.03,0.34,0.05,0.4,0.07L371.62,374.78z"/>
				<path class="st4" d="M380.52,374.78c-0.06-0.02-0.18-0.04-0.36-0.06c-0.18-0.02-0.4-0.03-0.68-0.03c-0.55,0-1.02,0.05-1.42,0.15
					c-0.39,0.1-0.72,0.23-0.97,0.4c-0.25,0.17-0.44,0.37-0.56,0.6c-0.12,0.23-0.18,0.47-0.18,0.73c0,0.33,0.11,0.61,0.33,0.82
					c0.22,0.22,0.51,0.39,0.86,0.52c0.35,0.13,0.73,0.23,1.15,0.29c0.42,0.06,0.83,0.11,1.22,0.14v1.17
					c-1.07,0.22-1.9,0.55-2.5,1.01c-0.6,0.46-0.9,0.98-0.9,1.57c0,0.2,0.04,0.38,0.12,0.56c0.08,0.18,0.2,0.33,0.38,0.47
					c0.18,0.14,0.4,0.24,0.68,0.33c0.28,0.08,0.62,0.12,1.03,0.12c0.58,0,1.06-0.04,1.44-0.12c0.38-0.08,0.64-0.15,0.77-0.2
					l0.17,1.18c-0.06,0.02-0.18,0.05-0.34,0.09c-0.17,0.04-0.36,0.08-0.58,0.12c-0.22,0.04-0.46,0.07-0.72,0.09
					c-0.26,0.03-0.51,0.04-0.76,0.04c-0.72,0-1.31-0.08-1.77-0.24c-0.47-0.16-0.84-0.37-1.1-0.61c-0.27-0.25-0.46-0.52-0.56-0.82
					c-0.1-0.3-0.16-0.58-0.16-0.85c0-0.77,0.28-1.43,0.83-1.98s1.35-0.96,2.37-1.23c-1.05-0.13-1.86-0.39-2.44-0.77
					c-0.58-0.38-0.87-0.97-0.87-1.77c0-0.4,0.1-0.79,0.29-1.15c0.19-0.36,0.47-0.68,0.85-0.96s0.84-0.49,1.39-0.65
					c0.55-0.16,1.19-0.24,1.92-0.24c0.32,0,0.59,0.01,0.79,0.04c0.21,0.03,0.34,0.05,0.4,0.07L380.52,374.78z"/>
				<path class="st4" d="M384.8,377.14c0.02,0.01,0.12,0.03,0.29,0.05c0.17,0.03,0.38,0.04,0.61,0.04c0.2,0,0.39-0.01,0.58-0.04
					s0.3-0.04,0.33-0.05v-3.28l1.14-0.23v3.52c0.03,0.01,0.13,0.03,0.3,0.05c0.17,0.03,0.37,0.04,0.6,0.04
					c0.2,0,0.39-0.01,0.59-0.04c0.2-0.03,0.31-0.04,0.33-0.05v-3.28l1.14-0.23v4.4c-0.06,0.02-0.26,0.07-0.58,0.15
					c-0.33,0.08-0.74,0.12-1.24,0.12c-0.4,0-0.75-0.03-1.03-0.08c-0.28-0.05-0.51-0.1-0.68-0.16c-0.14,0.05-0.33,0.1-0.55,0.15
					c-0.22,0.05-0.48,0.07-0.77,0.07c-0.27,0-0.49-0.01-0.66-0.04c-0.17-0.03-0.28-0.05-0.33-0.07l0.3,6.36h-1.31l-0.47-10.67
					l1.28-0.23L384.8,377.14z"/>
				<path class="st4" d="M392.46,387.4h-1.48l5.27-15.06h1.45L392.46,387.4z"/>
				<path class="st4" d="M404.24,380.03c-0.66,0-1.21-0.1-1.65-0.31c-0.44-0.21-0.78-0.47-1.03-0.79c-0.25-0.32-0.43-0.67-0.53-1.06
					c-0.1-0.38-0.15-0.75-0.15-1.1c0-0.6,0.09-1.11,0.26-1.53c0.18-0.42,0.41-0.76,0.72-1.01c0.3-0.25,0.64-0.44,1.03-0.55
					c0.38-0.11,0.79-0.17,1.21-0.17c0.91,0,1.65,0.25,2.21,0.76c0.56,0.51,0.87,1.32,0.92,2.44l0.31,7.82h-1.29l-0.19-4.71
					c-0.22,0.06-0.48,0.11-0.79,0.16C404.95,380.01,404.61,380.03,404.24,380.03z M404.38,378.9c0.45,0,0.8-0.03,1.06-0.09
					c0.26-0.06,0.44-0.11,0.54-0.15l-0.09-1.98c-0.03-0.64-0.19-1.15-0.47-1.51c-0.28-0.36-0.72-0.54-1.32-0.54
					c-0.6,0-1.06,0.18-1.38,0.54c-0.32,0.36-0.48,0.87-0.48,1.51c0,0.82,0.17,1.39,0.51,1.72
					C403.09,378.73,403.63,378.9,404.38,378.9z"/>
				<path class="st4" d="M413.35,387.4h-1.48l5.27-15.06h1.45L413.35,387.4z"/>
				<path class="st4" d="M423.59,384.53h-1.35l-0.47-10.78h1.35L423.59,384.53z"/>
				<path class="st4" d="M428.38,373.75h6.38v1.26h-4.96l0.42,9.52h-1.35L428.38,373.75z"/>
			</g>
		</g>
	</g>
</g>
</svg>
